<?xml version="1.0" encoding="UTF-8"?>
<!DOCTYPE svg PUBLIC "-//W3C//DTD SVG 1.1//EN" "http://www.w3.org/Graphics/SVG/1.1/DTD/svg11.dtd">
<!-- Creator: CorelDRAW 2021.5 -->
<svg xmlns="http://www.w3.org/2000/svg" xml:space="preserve" width="120px" height="42px" version="1.1" style="shape-rendering:geometricPrecision; text-rendering:geometricPrecision; image-rendering:optimizeQuality; fill-rule:evenodd; clip-rule:evenodd"
viewBox="0 0 120 42"
 xmlns:xlink="http://www.w3.org/1999/xlink"
 xmlns:xodm="http://www.corel.com/coreldraw/odm/2003">
 <defs>
  <style type="text/css">
   <![CDATA[
    .fil2 {fill:#1C511C}
    .fil3 {fill:#3CA536}
    .fil17 {fill:#FEFEFE;fill-rule:nonzero}
    .fil1 {fill:#1C511C;fill-rule:nonzero}
    .fil4 {fill:#6D6E71;fill-rule:nonzero}
    .fil7 {fill:#BE202E;fill-rule:nonzero}
    .fil5 {fill:#D22128;fill-rule:nonzero}
    .fil0 {fill:#EDEDED;fill-rule:nonzero}
    .fil8 {fill:url(#id0)}
    .fil12 {fill:url(#id1)}
    .fil15 {fill:url(#id2)}
    .fil6 {fill:url(#id3)}
    .fil9 {fill:url(#id4)}
    .fil13 {fill:url(#id5)}
    .fil16 {fill:url(#id6)}
    .fil14 {fill:url(#id7)}
    .fil11 {fill:url(#id8)}
    .fil10 {fill:url(#id9)}
   ]]>
  </style>
  <linearGradient id="id0" gradientUnits="userSpaceOnUse" x1="46.24" y1="27.55" x2="56.44" y2="5.69">
   <stop offset="0" style="stop-opacity:1; stop-color:#9E2064"/>
   <stop offset="0.321569" style="stop-opacity:1; stop-color:#9E2064"/>
   <stop offset="0.631373" style="stop-opacity:1; stop-color:#C92037"/>
   <stop offset="0.74902" style="stop-opacity:1; stop-color:#CD2335"/>
   <stop offset="1" style="stop-opacity:1; stop-color:#E97826"/>
  </linearGradient>
  <linearGradient id="id1" gradientUnits="userSpaceOnUse" xlink:href="#id0" x1="48.87" y1="27.28" x2="59.07" y2="5.42">
  </linearGradient>
  <linearGradient id="id2" gradientUnits="userSpaceOnUse" x1="48.97" y1="26.38" x2="59.03" y2="5.89">
   <stop offset="0" style="stop-opacity:1; stop-color:#A92051"/>
   <stop offset="0.321569" style="stop-opacity:1; stop-color:#A92051"/>
   <stop offset="0.631373" style="stop-opacity:1; stop-color:#C52034"/>
   <stop offset="0.74902" style="stop-opacity:1; stop-color:#C82233"/>
   <stop offset="1" style="stop-opacity:1; stop-color:#DA5929"/>
  </linearGradient>
  <linearGradient id="id3" gradientUnits="userSpaceOnUse" x1="57.18" y1="5.06" x2="61.94" y2="3.66">
   <stop offset="0" style="stop-opacity:1; stop-color:#F69923"/>
   <stop offset="0.309804" style="stop-opacity:1; stop-color:#F79A23"/>
   <stop offset="0.839216" style="stop-opacity:1; stop-color:#E97826"/>
   <stop offset="1" style="stop-opacity:1; stop-color:#E97826"/>
  </linearGradient>
  <linearGradient id="id4" gradientUnits="userSpaceOnUse" x1="49.67" y1="25.93" x2="55.74" y2="12.91">
   <stop offset="0" style="stop-opacity:1; stop-color:#282662"/>
   <stop offset="0.101961" style="stop-opacity:1; stop-color:#662E8D"/>
   <stop offset="0.788235" style="stop-opacity:1; stop-color:#9F2064"/>
   <stop offset="0.94902" style="stop-opacity:1; stop-color:#CD2032"/>
   <stop offset="1" style="stop-opacity:1; stop-color:#CD2032"/>
  </linearGradient>
  <linearGradient id="id5" gradientUnits="userSpaceOnUse" xlink:href="#id0" x1="48.13" y1="28.59" x2="58.32" y2="6.73">
  </linearGradient>
  <linearGradient id="id6" gradientUnits="userSpaceOnUse" xlink:href="#id0" x1="49.56" y1="26.64" x2="59.62" y2="6.15">
  </linearGradient>
  <linearGradient id="id7" gradientUnits="userSpaceOnUse" xlink:href="#id0" x1="49.52" y1="27.77" x2="59.76" y2="5.63">
  </linearGradient>
  <linearGradient id="id8" gradientUnits="userSpaceOnUse" xlink:href="#id4" x1="47.65" y1="24.77" x2="53.01" y2="13.28">
  </linearGradient>
  <linearGradient id="id9" gradientUnits="userSpaceOnUse" xlink:href="#id0" x1="46.61" y1="26.23" x2="56.81" y2="4.37">
  </linearGradient>
 </defs>
 <g id="Layer_x0020_1">
  <metadata id="CorelCorpID_0Corel-Layer"/>
  <path id="path3817_5_" class="fil0" d="M3.41 0.45l113.35 0.2c1.59,0 3,-0.23 3,3.16l-0.14 37.33 -119.07 0 0 -37.47c0,-1.67 0.16,-3.22 2.86,-3.22z" nodetypes="ccccccc"/>
  <path id="path120" class="fil1" d="M117.75 0l-115.5 0c-1.24,0 -2.25,1.01 -2.25,2.25l0 39.24c0,0.28 0.23,0.51 0.51,0.51l118.98 0c0.28,0 0.51,-0.23 0.51,-0.51l0 -39.24c0,-1.24 -1.01,-2.25 -2.25,-2.25zm-115.5 1.01l115.5 0c0.68,0 1.24,0.56 1.24,1.24 0,0 0,15.79 0,27.22l-82.56 0c-3.03,5.47 -8.86,9.18 -15.55,9.18 -6.69,0 -12.52,-3.71 -15.55,-9.18l-4.32 0c0,-11.43 0,-27.22 0,-27.22 0,-0.68 0.56,-1.24 1.24,-1.24z"/>
  <g id="_2032259896192">
   <path class="fil2" d="M15.02 34.43c-2.2,-0.34 -5.09,-2.8 -6.45,-4.51 -3.04,-3.85 -4.29,-8.77 -3.21,-13.58 1.66,-7.34 8.09,-12.42 15.64,-12.37 7.44,0.05 13.9,5.29 15.45,12.57 0.81,3.78 0.12,8.13 -1.87,11.46 -0.88,1.47 -1.88,2.73 -3.18,3.85 -1.16,1.01 -3.1,2.31 -4.62,2.6l-0.94 0.19 -3.93 -10.18 1.11 -0.4c2.01,-0.71 2.76,-3.34 2.28,-5.25 -0.52,-2.04 -2.36,-3.48 -4.48,-3.44 -3.65,0.09 -5.47,3.84 -3.91,6.98 0.69,1.39 1.17,1.23 2.22,2.05l0.67 0.53 -3.89 9.64 -0.89 -0.14z"/>
   <path class="fil3" d="M15.19 33.3l3.23 -8c-0.66,-0.52 -1.68,-0.7 -2.54,-2.45 -1.88,-3.8 0.31,-8.52 4.92,-8.62 2.88,-0.06 5.02,1.98 5.61,4.3 0.63,2.54 -0.46,5.7 -3.01,6.61l3.16 8.19c1.41,-0.27 3.29,-1.64 4.09,-2.34 1.15,-0.99 2.06,-2.09 2.95,-3.58 1.67,-2.8 2.55,-6.83 1.74,-10.63 -1.34,-6.27 -6.95,-11.62 -14.35,-11.67 -7.55,-0.05 -13.1,5.2 -14.51,11.48 -1.06,4.7 0.31,9.23 2.99,12.62 1.15,1.45 3.84,3.8 5.72,4.09z"/>
  </g>
  <g id="_2032703834368">
   <path class="fil4" d="M106.73 10.48c0.02,-0.02 0.04,-0.05 0.04,-0.1 0,-0.04 -0.02,-0.08 -0.04,-0.09 -0.03,-0.02 -0.07,-0.03 -0.13,-0.03l-0.15 0 0 0.25 0.14 0c0.07,0 0.12,-0.01 0.14,-0.03zm0.49 0.02l0 0.01c0,0.18 -0.06,0.33 -0.19,0.45 -0.13,0.13 -0.28,0.2 -0.46,0.2 -0.18,0 -0.33,-0.07 -0.46,-0.19 -0.12,-0.13 -0.19,-0.28 -0.19,-0.46 0,-0.18 0.07,-0.33 0.19,-0.46 0.13,-0.13 0.28,-0.19 0.46,-0.19 0.18,0 0.33,0.06 0.46,0.19 0.13,0.12 0.19,0.28 0.19,0.45zm-0.33 -0.12c0,0.12 -0.05,0.19 -0.16,0.22l0.19 0.25 -0.15 0 -0.17 -0.23 -0.15 0 0 0.23 -0.12 0 0 -0.7 0.26 0c0.1,0 0.18,0.02 0.23,0.06 0.04,0.03 0.07,0.09 0.07,0.17zm0.09 0.53c0.11,-0.11 0.16,-0.25 0.16,-0.4 0,-0.16 -0.05,-0.29 -0.16,-0.4 -0.11,-0.12 -0.24,-0.17 -0.4,-0.17 -0.16,0 -0.3,0.05 -0.41,0.17 -0.11,0.11 -0.16,0.24 -0.16,0.4 0,0.16 0.05,0.29 0.16,0.4 0.11,0.11 0.24,0.17 0.4,0.17 0.16,0 0.3,-0.06 0.41,-0.17z"/>
   <polygon class="fil4" points="63.13,7.17 63.13,8.45 62.96,8.45 62.96,7.17 62.49,7.17 62.49,7.01 63.6,7.01 63.6,7.17 "/>
   <polygon class="fil4" points="65.44,8.45 65.44,7.82 64.56,7.82 64.56,8.45 64.4,8.45 64.4,7.01 64.56,7.01 64.56,7.66 65.44,7.66 65.44,7.01 65.6,7.01 65.6,8.45 "/>
   <polygon class="fil4" points="66.75,7.17 66.75,7.64 67.48,7.64 67.48,7.8 66.75,7.8 66.75,8.3 67.6,8.3 67.6,8.45 66.59,8.45 66.59,7.01 67.57,7.01 67.57,7.17 66.75,7.17 "/>
   <path class="fil5" d="M65.02 11.06l-1.69 4.09 3.35 0 -1.66 -4.09zm-3.79 7.31l3.46 -8.26 0.66 0 3.46 8.26 -0.88 0 -1.07 -2.58 -3.71 0 -1.06 2.58 -0.86 0z"/>
   <path class="fil5" d="M70.5 14.6l2.64 0c0.98,0 1.61,-0.9 1.61,-1.9 0,-1.03 -0.77,-1.87 -1.68,-1.87l-2.57 0 0 3.77zm-0.8 3.77l0 -8.26 3.42 0c1.42,0 2.44,1.31 2.44,2.59 0,1.35 -0.95,2.62 -2.37,2.62l-2.69 0 0 3.05 -0.8 0 0 0z"/>
   <path class="fil5" d="M78.91 11.06l-1.7 4.09 3.35 0 -1.65 -4.09zm-3.8 7.31l3.46 -8.26 0.66 0 3.46 8.26 -0.88 0 -1.07 -2.58 -3.71 0 -1.06 2.58 -0.86 0z"/>
   <path class="fil5" d="M86.6 10.06c1.46,0 2.53,0.74 3.05,1.8l-0.66 0.4c-0.52,-1.09 -1.54,-1.47 -2.44,-1.47 -1.98,0 -3.06,1.77 -3.06,3.44 0,1.82 1.34,3.48 3.09,3.48 0.94,0 2.03,-0.47 2.55,-1.54l0.68 0.35c-0.54,1.23 -2,1.92 -3.27,1.92 -2.27,0 -3.87,-2.17 -3.87,-4.26 0.01,-1.99 1.44,-4.12 3.93,-4.12z"/>
   <polygon class="fil5" points="97.46,10.11 97.46,18.37 96.65,18.37 96.65,14.51 91.75,14.51 91.75,18.37 90.95,18.37 90.95,10.11 91.75,10.11 91.75,13.78 96.65,13.78 96.65,10.11 "/>
   <polygon class="fil5" points="104.88,17.65 104.88,18.37 99.33,18.37 99.33,10.11 104.77,10.11 104.77,10.83 100.13,10.83 100.13,13.81 104.18,13.81 104.18,14.49 100.13,14.49 100.13,17.65 104.88,17.65 "/>
   <path class="fil4" d="M62 20.12c0.1,0.03 0.19,0.07 0.26,0.12l-0.09 0.18c-0.07,-0.05 -0.15,-0.08 -0.24,-0.11 -0.08,-0.02 -0.16,-0.03 -0.24,-0.03 -0.11,0 -0.2,0.02 -0.27,0.06 -0.07,0.04 -0.1,0.09 -0.1,0.17 0,0.06 0.02,0.11 0.06,0.15 0.03,0.05 0.08,0.08 0.14,0.1 0.05,0.03 0.13,0.05 0.23,0.08 0.12,0.04 0.22,0.08 0.29,0.11 0.07,0.03 0.13,0.08 0.18,0.15 0.05,0.06 0.08,0.15 0.08,0.25 0,0.1 -0.03,0.18 -0.08,0.26 -0.05,0.07 -0.12,0.12 -0.22,0.16 -0.1,0.04 -0.21,0.06 -0.33,0.06 -0.13,0 -0.25,-0.02 -0.36,-0.07 -0.12,-0.05 -0.22,-0.11 -0.31,-0.19l0.09 -0.18c0.08,0.08 0.17,0.14 0.28,0.18 0.1,0.04 0.2,0.06 0.3,0.06 0.13,0 0.23,-0.02 0.3,-0.07 0.07,-0.05 0.11,-0.11 0.11,-0.2 0,-0.06 -0.02,-0.12 -0.06,-0.16 -0.04,-0.04 -0.08,-0.07 -0.14,-0.1 -0.06,-0.02 -0.13,-0.05 -0.23,-0.08 -0.12,-0.03 -0.21,-0.06 -0.29,-0.1 -0.07,-0.03 -0.13,-0.08 -0.18,-0.14 -0.05,-0.07 -0.08,-0.15 -0.08,-0.25 0,-0.1 0.02,-0.17 0.07,-0.24 0.05,-0.07 0.13,-0.12 0.22,-0.16 0.09,-0.04 0.19,-0.06 0.31,-0.06 0.1,0 0.2,0.02 0.3,0.05z"/>
   <path class="fil4" d="M63.78 20.36c-0.11,0.06 -0.2,0.14 -0.26,0.25 -0.07,0.1 -0.1,0.22 -0.1,0.34 0,0.13 0.03,0.25 0.1,0.35 0.06,0.11 0.15,0.19 0.26,0.25 0.1,0.06 0.22,0.09 0.35,0.09 0.13,0 0.25,-0.03 0.36,-0.09 0.1,-0.06 0.19,-0.14 0.25,-0.25 0.07,-0.1 0.1,-0.22 0.1,-0.35 0,-0.12 -0.03,-0.24 -0.1,-0.34 -0.06,-0.11 -0.15,-0.19 -0.25,-0.25 -0.11,-0.06 -0.23,-0.09 -0.36,-0.09 -0.13,0 -0.24,0.03 -0.35,0.09zm0.81 -0.17c0.14,0.08 0.25,0.19 0.33,0.32 0.08,0.14 0.12,0.28 0.12,0.44 0,0.16 -0.04,0.31 -0.12,0.45 -0.08,0.13 -0.19,0.24 -0.33,0.32 -0.14,0.08 -0.29,0.12 -0.46,0.12 -0.17,0 -0.32,-0.04 -0.46,-0.12 -0.14,-0.08 -0.25,-0.19 -0.33,-0.32 -0.08,-0.14 -0.12,-0.29 -0.12,-0.45 0,-0.16 0.04,-0.31 0.12,-0.44 0.08,-0.13 0.19,-0.24 0.33,-0.32 0.14,-0.07 0.29,-0.11 0.46,-0.11 0.17,0 0.32,0.04 0.46,0.11z"/>
   <polygon class="fil4" points="66.3,20.27 66.3,20.89 67.11,20.89 67.11,21.08 66.3,21.08 66.3,21.83 66.1,21.83 66.1,20.08 67.21,20.08 67.21,20.27 "/>
   <polygon class="fil4" points="68.83,20.27 68.83,21.83 68.63,21.83 68.63,20.27 68.06,20.27 68.06,20.08 69.4,20.08 69.4,20.27 "/>
   <polygon class="fil4" points="71.98,21.83 71.5,20.36 71.03,21.83 70.83,21.83 70.24,20.08 70.46,20.08 70.93,21.59 71.41,20.08 71.61,20.08 72.09,21.59 72.56,20.08 72.76,20.08 72.18,21.83 "/>
   <path class="fil4" d="M74.23 20.31l-0.38 0.88 0.78 0 -0.4 -0.88zm-0.47 1.08l-0.19 0.44 -0.22 0 0.78 -1.75 0.21 0 0.78 1.75 -0.22 0 -0.19 -0.44 -0.95 0z"/>
   <path class="fil4" d="M77.11 20.98c0.08,-0.07 0.12,-0.17 0.12,-0.31 0,-0.13 -0.04,-0.23 -0.12,-0.29 -0.09,-0.07 -0.21,-0.11 -0.37,-0.11l-0.47 0 0 0.81 0.47 0c0.16,0 0.28,-0.03 0.37,-0.1zm-0.25 0.29c-0.05,0 -0.09,0.01 -0.12,0.01l-0.47 0 0 0.55 -0.19 0 0 -1.75 0.66 0c0.22,0 0.39,0.05 0.51,0.16 0.12,0.1 0.18,0.24 0.18,0.43 0,0.14 -0.04,0.26 -0.11,0.36 -0.06,0.09 -0.16,0.16 -0.28,0.2l0.4 0.6 -0.22 0 -0.36 -0.56z"/>
   <polygon class="fil4" points="78.74,20.27 78.74,20.85 79.62,20.85 79.62,21.04 78.74,21.04 78.74,21.64 79.75,21.64 79.75,21.83 78.54,21.83 78.54,20.08 79.72,20.08 79.72,20.27 "/>
   <polygon class="fil4" points="82.54,20.27 82.54,20.89 83.35,20.89 83.35,21.08 82.54,21.08 82.54,21.83 82.34,21.83 82.34,20.08 83.45,20.08 83.45,20.27 "/>
   <path class="fil4" d="M84.84 20.36c-0.11,0.06 -0.19,0.14 -0.26,0.25 -0.06,0.1 -0.1,0.22 -0.1,0.34 0,0.13 0.03,0.25 0.1,0.35 0.07,0.11 0.15,0.19 0.26,0.25 0.11,0.06 0.23,0.09 0.36,0.09 0.12,0 0.24,-0.03 0.35,-0.09 0.11,-0.06 0.19,-0.14 0.26,-0.25 0.06,-0.1 0.09,-0.22 0.09,-0.35 0,-0.12 -0.03,-0.24 -0.09,-0.34 -0.07,-0.11 -0.15,-0.19 -0.26,-0.25 -0.11,-0.06 -0.23,-0.09 -0.35,-0.09 -0.13,0 -0.25,0.03 -0.36,0.09zm0.81 -0.17c0.14,0.08 0.25,0.19 0.33,0.32 0.09,0.14 0.13,0.28 0.13,0.44 0,0.16 -0.04,0.31 -0.13,0.45 -0.08,0.13 -0.19,0.24 -0.33,0.32 -0.14,0.08 -0.29,0.12 -0.45,0.12 -0.17,0 -0.33,-0.04 -0.47,-0.12 -0.14,-0.08 -0.25,-0.19 -0.33,-0.32 -0.08,-0.14 -0.12,-0.29 -0.12,-0.45 0,-0.16 0.04,-0.31 0.12,-0.44 0.08,-0.13 0.19,-0.24 0.33,-0.32 0.14,-0.07 0.3,-0.11 0.47,-0.11 0.16,0 0.31,0.04 0.45,0.11z"/>
   <path class="fil4" d="M88.4 21.64c-0.13,0.13 -0.31,0.2 -0.54,0.2 -0.23,0 -0.41,-0.07 -0.54,-0.2 -0.13,-0.13 -0.19,-0.3 -0.19,-0.53l0 -1.03 0.2 0 0 1.03c0,0.17 0.04,0.3 0.14,0.39 0.1,0.1 0.23,0.14 0.39,0.14 0.17,0 0.3,-0.04 0.39,-0.14 0.1,-0.09 0.14,-0.22 0.14,-0.39l0 -1.03 0.2 0 0 1.03c0,0.23 -0.06,0.4 -0.19,0.53z"/>
   <polygon class="fil4" points="91,21.83 89.96,20.43 89.96,21.83 89.76,21.83 89.76,20.08 89.97,20.08 91.01,21.48 91.01,20.08 91.21,20.08 91.21,21.83 "/>
   <path class="fil4" d="M92.6 21.64l0.51 0c0.13,0 0.24,-0.03 0.35,-0.09 0.11,-0.06 0.19,-0.14 0.25,-0.25 0.06,-0.1 0.09,-0.21 0.09,-0.34 0,-0.13 -0.03,-0.25 -0.09,-0.35 -0.06,-0.1 -0.15,-0.18 -0.25,-0.25 -0.11,-0.06 -0.23,-0.09 -0.36,-0.09l-0.5 0 0 1.37zm0.96 -1.44c0.14,0.07 0.25,0.18 0.33,0.31 0.07,0.13 0.11,0.28 0.11,0.44 0,0.17 -0.04,0.31 -0.11,0.45 -0.08,0.13 -0.19,0.24 -0.33,0.31 -0.14,0.08 -0.29,0.12 -0.46,0.12l-0.7 0 0 -1.75 0.71 0c0.17,0 0.32,0.04 0.45,0.12z"/>
   <path class="fil4" d="M95.61 20.31l-0.39 0.88 0.79 0 -0.4 -0.88zm-0.47 1.08l-0.2 0.44 -0.21 0 0.78 -1.75 0.21 0 0.78 1.75 -0.22 0 -0.19 -0.44 -0.95 0z"/>
   <polygon class="fil4" points="97.81,20.27 97.81,21.83 97.61,21.83 97.61,20.27 97.04,20.27 97.04,20.08 98.38,20.08 98.38,20.27 "/>
   <polygon class="fil4" points="99.34,20.08 99.54,20.08 99.54,21.83 99.34,21.83 "/>
   <path class="fil4" d="M101.16 20.36c-0.11,0.06 -0.2,0.14 -0.26,0.25 -0.06,0.1 -0.1,0.22 -0.1,0.34 0,0.13 0.03,0.25 0.1,0.35 0.06,0.11 0.15,0.19 0.26,0.25 0.11,0.06 0.23,0.09 0.35,0.09 0.13,0 0.25,-0.03 0.36,-0.09 0.11,-0.06 0.19,-0.14 0.26,-0.25 0.06,-0.1 0.09,-0.22 0.09,-0.35 0,-0.12 -0.03,-0.24 -0.09,-0.34 -0.07,-0.11 -0.15,-0.19 -0.26,-0.25 -0.11,-0.06 -0.23,-0.09 -0.35,-0.09 -0.13,0 -0.25,0.03 -0.36,0.09zm0.81 -0.17c0.14,0.08 0.25,0.19 0.33,0.32 0.08,0.14 0.13,0.28 0.13,0.44 0,0.16 -0.05,0.31 -0.13,0.45 -0.08,0.13 -0.19,0.24 -0.33,0.32 -0.14,0.08 -0.29,0.12 -0.46,0.12 -0.16,0 -0.32,-0.04 -0.46,-0.12 -0.14,-0.08 -0.25,-0.19 -0.33,-0.32 -0.08,-0.14 -0.12,-0.29 -0.12,-0.45 0,-0.16 0.04,-0.31 0.12,-0.44 0.08,-0.13 0.19,-0.24 0.33,-0.32 0.14,-0.07 0.3,-0.11 0.46,-0.11 0.17,0 0.32,0.04 0.46,0.11z"/>
   <polygon class="fil4" points="104.73,21.83 103.68,20.43 103.68,21.83 103.48,21.83 103.48,20.08 103.69,20.08 104.74,21.48 104.74,20.08 104.93,20.08 104.93,21.83 "/>
   <path class="fil6" d="M58.38 3.14c-0.38,0.22 -1,0.85 -1.75,1.76l0.69 1.29c0.48,-0.69 0.97,-1.3 1.46,-1.83 -0.16,0.17 -0.64,0.74 -1.37,1.86 0.7,-0.04 1.78,-0.18 2.66,-0.33 0.26,-1.47 -0.26,-2.14 -0.26,-2.14 0,0 -0.45,-0.72 -1.04,-0.72 -0.12,0 -0.26,0.03 -0.39,0.11zm0.46 1.16c-0.02,0.02 -0.04,0.04 -0.06,0.06 0.04,-0.04 0.06,-0.06 0.06,-0.06z"/>
   <path class="fil7" d="M56.08 13.98c-0.09,0.02 -0.18,0.04 -0.27,0.05l0 0c0.05,0 0.09,-0.01 0.14,-0.02 0.04,-0.01 0.09,-0.02 0.13,-0.03z"/>
   <path class="fil7" d="M55.85 14.02c0.07,-0.01 0.13,-0.02 0.2,-0.03 -0.03,0.01 -0.07,0.01 -0.1,0.02 -0.04,0.01 -0.07,0.01 -0.1,0.01z"/>
   <path class="fil7" d="M56.31 12.86l0 0c0.01,0 0.03,-0.01 0.04,-0.01 0.06,-0.01 0.12,-0.02 0.17,-0.03 -0.07,0.01 -0.14,0.02 -0.21,0.04z"/>
   <path class="fil7" d="M56.32 12.85c0.06,-0.01 0.12,-0.02 0.18,-0.03 -0.05,0.01 -0.1,0.02 -0.15,0.03 -0.01,0 -0.02,0 -0.03,0z"/>
   <path class="fil8" d="M56.48 5.09c-0.2,0.25 -0.4,0.51 -0.61,0.79 -0.24,0.32 -0.48,0.66 -0.73,1.01 -0.23,0.33 -0.46,0.67 -0.69,1.02 -0.2,0.31 -0.4,0.62 -0.59,0.94 -0.01,0.01 -0.02,0.02 -0.03,0.03l0.9 1.76c0.18,-0.38 0.38,-0.75 0.57,-1.11 0.21,-0.39 0.42,-0.77 0.63,-1.14 0.22,-0.39 0.45,-0.76 0.67,-1.12 0.02,-0.02 0.03,-0.04 0.04,-0.06 0.23,-0.35 0.45,-0.69 0.68,-1.02l-0.69 -1.29c-0.05,0.06 -0.1,0.13 -0.15,0.19z"/>
   <path class="fil9" d="M52.03 19.17l-0.72 0.08c-0.02,0.06 -0.04,0.12 -0.06,0.18 -0.12,0.33 -0.24,0.66 -0.36,1l0 0.01c-0.02,0.05 -0.04,0.1 -0.05,0.14 -0.08,0.23 -0.15,0.43 -0.31,0.9 0.26,0.12 0.47,0.43 0.67,0.79 -0.02,-0.37 -0.18,-0.72 -0.47,-0.99 1.3,0.06 2.41,-0.26 2.99,-1.21 0.05,-0.09 0.09,-0.17 0.14,-0.27 -0.27,0.33 -0.59,0.48 -1.2,0.44l0 0 0 0c0.9,-0.4 1.35,-0.79 1.75,-1.43 0.09,-0.15 0.19,-0.32 0.28,-0.5 -0.79,0.81 -1.7,1.04 -2.66,0.86z"/>
   <path class="fil10" d="M53.79 8.95c-0.21,0.34 -0.41,0.69 -0.62,1.04 -0.2,0.36 -0.4,0.72 -0.6,1.09 -0.16,0.31 -0.33,0.63 -0.48,0.95 -0.04,0.06 -0.07,0.12 -0.1,0.19 -0.19,0.4 -0.37,0.78 -0.52,1.15 -0.18,0.42 -0.34,0.82 -0.48,1.2 -0.09,0.25 -0.18,0.5 -0.25,0.73 -0.06,0.2 -0.12,0.39 -0.18,0.59 -0.13,0.47 -0.25,0.93 -0.34,1.4l0.89 1.76c0.12,-0.31 0.24,-0.63 0.37,-0.96 0.03,-0.09 0.07,-0.18 0.1,-0.27 0.16,-0.4 0.32,-0.81 0.48,-1.22 0.16,-0.39 0.32,-0.79 0.49,-1.18 0.16,-0.4 0.33,-0.8 0.5,-1.2 0.18,-0.4 0.36,-0.81 0.54,-1.21 0.18,-0.4 0.37,-0.79 0.55,-1.19 0.07,-0.14 0.14,-0.28 0.21,-0.42 0.12,-0.24 0.23,-0.48 0.35,-0.72 0.01,-0.02 0.02,-0.03 0.02,-0.04l-0.89 -1.76c-0.01,0.03 -0.03,0.05 -0.04,0.07z"/>
   <path class="fil11" d="M50.21 17.35c-0.12,0.57 -0.2,1.13 -0.24,1.69 0,0.02 0,0.04 0,0.06 -0.28,-0.45 -1.03,-0.89 -1.02,-0.88 0.53,0.77 0.94,1.54 1,2.3 -0.29,0.06 -0.68,-0.03 -1.14,-0.19 0.48,0.43 0.83,0.55 0.97,0.58 -0.43,0.03 -0.89,0.33 -1.34,0.67 0.66,-0.27 1.2,-0.38 1.59,-0.29 -0.61,1.73 -1.23,3.64 -1.84,5.67 0.19,-0.05 0.3,-0.18 0.36,-0.35 0.11,-0.37 0.84,-2.78 1.98,-5.95 0.03,-0.09 0.06,-0.18 0.09,-0.27 0.01,-0.03 0.02,-0.05 0.03,-0.08 0.12,-0.33 0.24,-0.67 0.37,-1.02 0.03,-0.07 0.06,-0.15 0.09,-0.23l0 -0.01 -0.89 -1.76c0,0.02 -0.01,0.04 -0.01,0.06z"/>
   <path class="fil12" d="M58.23 10.17c-0.25,0.14 -0.66,0.27 -1,0.33l0.66 -0.07 -0.66 0.07 -0.01 0.01c-0.03,0 -0.07,0.01 -0.1,0.01l0.01 -0.01 -2.26 0.25c0,0.01 0,0.02 -0.01,0.03 -0.02,0.05 -0.05,0.1 -0.07,0.16 -0.08,0.15 -0.16,0.32 -0.24,0.48 -0.08,0.18 -0.17,0.37 -0.26,0.55 -0.04,0.1 -0.09,0.19 -0.13,0.29 -0.13,0.29 -0.27,0.59 -0.41,0.9 -0.16,0.38 -0.33,0.77 -0.51,1.18 -0.16,0.39 -0.33,0.79 -0.5,1.21 -0.17,0.4 -0.33,0.81 -0.5,1.23 -0.14,0.38 -0.29,0.76 -0.44,1.16 -0.01,0.02 -0.02,0.04 -0.02,0.06 -0.15,0.39 -0.3,0.8 -0.46,1.21 0,0.01 0,0.02 -0.01,0.03l0.72 -0.08c-0.01,0 -0.03,0 -0.04,0 0.86,-0.11 2.01,-0.75 2.74,-1.55 0.34,-0.36 0.66,-0.8 0.94,-1.3 0.21,-0.38 0.41,-0.8 0.6,-1.26 0.17,-0.4 0.33,-0.84 0.48,-1.31 -0.19,0.1 -0.42,0.18 -0.67,0.23 -0.01,0.01 -0.02,0.01 -0.03,0.01 -0.03,0.01 -0.07,0.01 -0.1,0.02 -0.04,0.01 -0.07,0.01 -0.1,0.01 -0.01,0.01 -0.03,0.01 -0.04,0.01l0 0c0.8,-0.31 1.31,-0.9 1.68,-1.64 -0.21,0.15 -0.56,0.34 -0.97,0.43 -0.01,0 -0.01,0 -0.02,0 -0.05,0.01 -0.1,0.02 -0.15,0.03 -0.01,0 -0.02,0 -0.03,0 -0.01,0.01 -0.01,0.01 -0.01,0.01l0 0 0 0c0.28,-0.12 0.51,-0.25 0.72,-0.41 0.04,-0.03 0.08,-0.06 0.12,-0.1 0.06,-0.05 0.12,-0.11 0.18,-0.17 0.04,-0.04 0.07,-0.07 0.11,-0.11 0.07,-0.1 0.15,-0.2 0.22,-0.31 0.02,-0.04 0.04,-0.07 0.06,-0.11 0.03,-0.05 0.05,-0.1 0.08,-0.15 0.11,-0.22 0.2,-0.43 0.27,-0.6 0.04,-0.09 0.07,-0.17 0.1,-0.25 0.01,-0.03 0.02,-0.06 0.03,-0.09 0.03,-0.08 0.05,-0.16 0.07,-0.22 0.02,-0.1 0.04,-0.18 0.05,-0.24 -0.03,0.02 -0.06,0.04 -0.09,0.07zm-2.28 3.84c-0.05,0.01 -0.09,0.02 -0.14,0.02 0.05,-0.01 0.09,-0.01 0.14,-0.02z"/>
   <path class="fil13" d="M57.41 6.22c-0.2,0.31 -0.42,0.66 -0.66,1.05 -0.01,0.02 -0.03,0.04 -0.04,0.07 -0.2,0.34 -0.42,0.72 -0.65,1.13 -0.19,0.36 -0.4,0.74 -0.61,1.15 -0.19,0.36 -0.38,0.74 -0.58,1.14l2.26 -0.24c0.66,-0.31 0.96,-0.58 1.24,-0.98 0.08,-0.11 0.16,-0.22 0.23,-0.34 0.23,-0.36 0.46,-0.76 0.67,-1.16 0.19,-0.38 0.37,-0.76 0.5,-1.11 0.08,-0.21 0.15,-0.42 0.2,-0.59 0.04,-0.16 0.07,-0.31 0.1,-0.45 -0.88,0.15 -1.96,0.29 -2.66,0.33z"/>
   <path class="fil7" d="M55.95 14.01c-0.05,0.01 -0.09,0.01 -0.14,0.02 0.05,0 0.09,-0.01 0.14,-0.02z"/>
   <path class="fil7" d="M55.81 14.03c0.05,-0.01 0.09,-0.01 0.14,-0.02 -0.05,0.01 -0.09,0.02 -0.14,0.02z"/>
   <path class="fil14" d="M55.81 14.03c0.05,0 0.09,-0.01 0.14,-0.02 -0.05,0.01 -0.09,0.01 -0.14,0.02z"/>
   <path class="fil7" d="M56.31 12.86c0.01,0 0.03,-0.01 0.04,-0.01 -0.01,0 -0.03,0.01 -0.04,0.01z"/>
   <path class="fil15" d="M56.31 12.86c0.01,0 0.03,-0.01 0.04,-0.01 -0.01,0 -0.03,0.01 -0.04,0.01z"/>
   <path class="fil16" d="M56.31 12.86c0.01,0 0.03,-0.01 0.04,-0.01 -0.01,0 -0.03,0.01 -0.04,0.01z"/>
  </g>
  <path class="fil17" d="M48.18 38.04l0 -6.12 1.25 0 0 5.08 3.09 0 0 1.04 -4.34 0zm7.42 0l0 -6.17 1.25 0 0 6.17 -1.25 0zm8.78 -2.28l1.2 0.37c-0.18,0.68 -0.49,1.19 -0.92,1.52 -0.43,0.33 -0.98,0.49 -1.64,0.49 -0.82,0 -1.49,-0.28 -2.02,-0.84 -0.53,-0.56 -0.79,-1.32 -0.79,-2.3 0,-1.02 0.26,-1.82 0.79,-2.39 0.53,-0.57 1.23,-0.85 2.09,-0.85 0.76,0 1.37,0.22 1.84,0.67 0.28,0.26 0.49,0.64 0.63,1.14l-1.23 0.29c-0.07,-0.32 -0.22,-0.57 -0.45,-0.76 -0.24,-0.18 -0.52,-0.27 -0.85,-0.27 -0.46,0 -0.83,0.16 -1.11,0.49 -0.29,0.33 -0.43,0.86 -0.43,1.59 0,0.78 0.14,1.34 0.42,1.67 0.28,0.33 0.65,0.49 1.1,0.49 0.33,0 0.61,-0.1 0.85,-0.31 0.24,-0.21 0.41,-0.54 0.52,-1zm4.66 2.28l0 -6.17 4.57 0 0 1.04 -3.32 0 0 1.37 3.09 0 0 1.04 -3.09 0 0 1.68 3.44 0 0 1.04 -4.69 0zm8.14 0l0 -6.17 1.21 0 2.54 4.13 0 -4.13 1.15 0 0 6.17 -1.24 0 -2.5 -4.06 0 4.06 -1.16 0zm8.29 -2l1.22 -0.12c0.07,0.4 0.21,0.7 0.44,0.89 0.22,0.19 0.52,0.29 0.9,0.29 0.4,0 0.7,-0.09 0.9,-0.26 0.2,-0.16 0.3,-0.36 0.3,-0.59 0,-0.15 -0.04,-0.27 -0.12,-0.37 -0.09,-0.1 -0.24,-0.19 -0.45,-0.27 -0.15,-0.05 -0.47,-0.14 -0.99,-0.27 -0.67,-0.16 -1.13,-0.37 -1.4,-0.61 -0.38,-0.34 -0.57,-0.76 -0.57,-1.25 0,-0.31 0.09,-0.61 0.27,-0.88 0.18,-0.27 0.43,-0.48 0.77,-0.63 0.33,-0.14 0.73,-0.21 1.21,-0.21 0.77,0 1.35,0.17 1.74,0.51 0.39,0.34 0.59,0.8 0.61,1.37l-1.25 0.05c-0.05,-0.32 -0.16,-0.55 -0.34,-0.69 -0.17,-0.14 -0.43,-0.21 -0.78,-0.21 -0.36,0 -0.64,0.08 -0.84,0.22 -0.13,0.1 -0.2,0.23 -0.2,0.39 0,0.15 0.06,0.27 0.19,0.37 0.15,0.14 0.53,0.28 1.14,0.42 0.6,0.14 1.05,0.29 1.34,0.44 0.29,0.16 0.52,0.37 0.68,0.63 0.16,0.27 0.24,0.59 0.24,0.98 0,0.36 -0.09,0.69 -0.29,1 -0.2,0.31 -0.47,0.53 -0.83,0.68 -0.36,0.15 -0.81,0.23 -1.35,0.23 -0.78,0 -1.37,-0.18 -1.79,-0.54 -0.42,-0.36 -0.67,-0.88 -0.75,-1.57zm8.47 2l0 -6.17 4.56 0 0 1.04 -3.31 0 0 1.37 3.08 0 0 1.04 -3.08 0 0 1.68 3.43 0 0 1.04 -4.68 0zm8.14 -6.17l2.27 0c0.51,0 0.9,0.04 1.17,0.12 0.36,0.1 0.67,0.29 0.93,0.57 0.25,0.27 0.45,0.6 0.58,0.99 0.14,0.4 0.21,0.89 0.21,1.46 0,0.51 -0.07,0.95 -0.19,1.31 -0.16,0.45 -0.38,0.82 -0.66,1.09 -0.22,0.22 -0.51,0.38 -0.88,0.5 -0.27,0.08 -0.64,0.13 -1.1,0.13l-2.33 0 0 -6.17zm1.24 1.04l0 4.09 0.93 0c0.35,0 0.6,-0.02 0.75,-0.06 0.2,-0.05 0.37,-0.14 0.5,-0.26 0.13,-0.12 0.24,-0.32 0.33,-0.6 0.08,-0.27 0.12,-0.65 0.12,-1.12 0,-0.48 -0.04,-0.85 -0.12,-1.1 -0.09,-0.26 -0.21,-0.46 -0.36,-0.6 -0.15,-0.14 -0.34,-0.24 -0.57,-0.29 -0.17,-0.04 -0.51,-0.06 -1.02,-0.06l-0.56 0z"/>
 </g>
</svg>
