<?xml version="1.0" encoding="UTF-8"?>
<!DOCTYPE svg PUBLIC "-//W3C//DTD SVG 1.1//EN" "http://www.w3.org/Graphics/SVG/1.1/DTD/svg11.dtd">
<!-- Creator: CorelDRAW 2021.5 -->
<svg xmlns="http://www.w3.org/2000/svg" xml:space="preserve" width="120px" height="42px" version="1.1" style="shape-rendering:geometricPrecision; text-rendering:geometricPrecision; image-rendering:optimizeQuality; fill-rule:evenodd; clip-rule:evenodd"
viewBox="0 0 120 42"
 xmlns:xlink="http://www.w3.org/1999/xlink"
 xmlns:xodm="http://www.corel.com/coreldraw/odm/2003">
 <defs>
  <style type="text/css">
   <![CDATA[
    .fil2 {fill:#1C511C}
    .fil3 {fill:#3CA536}
    .fil5 {fill:#FEFEFE;fill-rule:nonzero}
    .fil1 {fill:#1C511C;fill-rule:nonzero}
    .fil4 {fill:#990000;fill-rule:nonzero}
    .fil0 {fill:#EDEDED;fill-rule:nonzero}
   ]]>
  </style>
 </defs>
 <g id="Layer_x0020_1">
  <metadata id="CorelCorpID_0Corel-Layer"/>
  <path id="path3817_5_" class="fil0" d="M3.41 0.45l113.35 0.2c1.59,0 3,-0.23 3,3.16l-0.14 37.33 -119.07 0 0 -37.47c0,-1.67 0.16,-3.22 2.86,-3.22z" nodetypes="ccccccc"/>
  <path id="path120" class="fil1" d="M117.75 0l-115.5 0c-1.24,0 -2.25,1.01 -2.25,2.25l0 39.24c0,0.28 0.23,0.51 0.51,0.51l118.98 0c0.28,0 0.51,-0.23 0.51,-0.51l0 -39.24c0,-1.24 -1.01,-2.25 -2.25,-2.25zm-115.5 1.01l115.5 0c0.68,0 1.24,0.56 1.24,1.24 0,0 0,15.79 0,27.22l-82.56 0c-3.03,5.47 -8.86,9.18 -15.55,9.18 -6.69,0 -12.52,-3.71 -15.55,-9.18l-4.32 0c0,-11.43 0,-27.22 0,-27.22 0,-0.68 0.56,-1.24 1.24,-1.24z"/>
  <g id="_2032707575792">
   <path class="fil2" d="M15.02 34.43c-2.2,-0.34 -5.09,-2.8 -6.45,-4.51 -3.04,-3.85 -4.29,-8.77 -3.21,-13.58 1.66,-7.34 8.09,-12.42 15.64,-12.37 7.44,0.05 13.9,5.29 15.45,12.57 0.81,3.78 0.12,8.13 -1.87,11.46 -0.88,1.47 -1.88,2.73 -3.18,3.85 -1.16,1.01 -3.1,2.31 -4.62,2.6l-0.94 0.19 -3.93 -10.18 1.11 -0.4c2.01,-0.71 2.76,-3.34 2.28,-5.25 -0.52,-2.04 -2.36,-3.48 -4.48,-3.44 -3.65,0.09 -5.47,3.84 -3.91,6.98 0.69,1.39 1.17,1.23 2.22,2.05l0.67 0.53 -3.89 9.64 -0.89 -0.14z"/>
   <path class="fil3" d="M15.19 33.3l3.23 -8c-0.66,-0.52 -1.68,-0.7 -2.54,-2.45 -1.88,-3.8 0.31,-8.52 4.92,-8.62 2.88,-0.06 5.02,1.98 5.61,4.3 0.63,2.54 -0.46,5.7 -3.01,6.61l3.16 8.19c1.41,-0.27 3.29,-1.64 4.09,-2.34 1.15,-0.99 2.06,-2.09 2.95,-3.58 1.67,-2.8 2.55,-6.83 1.74,-10.63 -1.34,-6.27 -6.95,-11.62 -14.35,-11.67 -7.55,-0.05 -13.1,5.2 -14.51,11.48 -1.06,4.7 0.31,9.23 2.99,12.62 1.15,1.45 3.84,3.8 5.72,4.09z"/>
  </g>
  <g id="_2032707576080">
   <path class="fil4" d="M78.22 25.69c2.83,-0.33 5.47,-3.07 5.01,-5.98 -0.19,-1.24 -1,-2.51 -2.34,-3.4 -1.05,-0.69 -6.16,-3.11 -7.05,-3.73 -0.55,-0.42 -1.63,-1.57 -1.71,-2.31 -0.22,-2.01 0.88,-2.87 1.99,-3.38 0.45,-0.21 1.04,-0.29 1.28,-0.32 2.07,-0.24 2.74,0.13 4.64,1.03 0.19,0.09 0.39,0.1 0.6,0.06 0.63,-0.1 1.07,-0.37 0.97,-1.01 -0.07,-0.47 -0.34,-0.69 -0.83,-0.93 -1.32,-0.66 -3.79,-1.44 -5.88,-1.11 -0.03,0 -0.07,0.01 -0.1,0.02l0 -0.03c-2.9,0.48 -5.19,3.09 -4.73,6 0.25,1.55 1.44,2.86 2.67,3.66 0.82,0.69 3.79,1.88 6.73,3.51 1.04,0.58 1.46,1.15 1.61,2.44 0.16,1.34 -1.39,2.86 -2.61,3.32 -1.88,0.56 -4.1,-0.23 -5.58,-1.01 -0.44,-0.29 -0.64,-0.44 -1.05,-0.38 -0.64,0.11 -1.07,0.7 -0.97,1.34 0.07,0.42 0.31,0.72 0.73,0.9 2.62,1.16 4.4,1.56 6.62,1.31l0 0z"/>
   <path class="fil4" d="M59.95 4.23c-0.05,0 -0.1,0.02 -0.14,0.04 -2.88,0.32 -5.13,2.72 -5.22,5.66l0.04 0c0,0.02 -0.01,0.05 -0.01,0.08l0 14.61c0,0.54 0.35,0.97 0.81,1.06 0,0 0.01,0.01 0.02,0.01 0.13,0.05 0.27,0.06 0.41,0.06l8.29 0 0 0.07c3.39,-0.01 6.13,-2.76 6.13,-6.15 0,-2.75 -1.8,-5.06 -4.28,-5.86 1.06,-1.01 1.71,-2.43 1.71,-4.01 0,-2.98 -2.33,-5.4 -5.27,-5.56 -0.02,0 -0.04,-0.01 -0.06,-0.01l-2.43 0 0 0zm0.09 1.93l2.23 0c1.87,0.2 3.34,1.75 3.34,3.64 0,1.83 -1.37,3.34 -3.16,3.62l-4.91 0c-0.33,-0.12 -0.62,-0.36 -0.78,-0.67 -0.11,-0.2 -0.18,-0.43 -0.18,-0.67l0 -0.28 -0.03 0 0 -1.79c0,-0.05 -0.01,-0.11 -0.02,-0.16 0.13,-1.92 1.61,-3.46 3.51,-3.66l0 -0.03 0 0zm4.11 9.2l0 0.04c2.29,0.03 4.14,1.91 4.14,4.22 0,2.3 -1.85,4.17 -4.14,4.2l0 0.02 -7.6 0 0 -7.01 0.03 0 0 -0.29c0,-0.24 0.07,-0.47 0.18,-0.67 0.1,-0.2 0.26,-0.37 0.44,-0.5l6.81 0c0.05,0 0.09,0 0.14,-0.01l0 0z"/>
   <path class="fil4" d="M88.52 4.66l0 0.01 -0.05 0c-1.74,0 -3.17,1.34 -3.33,3.04l0 16.72c0,0.53 0.35,0.97 0.8,1.07 0.02,0 0.05,0.01 0.08,0.01 0.02,0 0.04,0.01 0.07,0.01 0.01,0 0.02,0 0.02,0l4.35 0c0,0 0.02,0 0.03,0 5.73,-0.13 10.33,-4.74 10.33,-10.42 0,-5.61 -4.5,-10.19 -10.14,-10.41 -0.1,-0.02 -0.17,-0.03 -0.22,-0.03l-1.94 0zm-0.34 1.79l3.2 0c4.35,0.54 7.72,4.21 7.72,8.65 0,4.41 -3.32,8.05 -7.64,8.64l-3.22 0c-0.42,-0.09 -0.79,-0.36 -0.99,-0.73 -0.11,-0.2 -0.16,-0.43 -0.16,-0.67l0 -0.29 -0.02 0 0 -14.25c0.01,-0.24 0.07,-0.48 0.18,-0.68 0.19,-0.35 0.52,-0.61 0.93,-0.7l0 0.03z"/>
  </g>
  <path class="fil5" d="M47.68 38.41l0 -6.11 1.25 0 0 5.07 3.09 0 0 1.04 -4.34 0zm7.42 0l0 -6.17 1.25 0 0 6.17 -1.25 0zm8.78 -2.27l1.2 0.37c-0.18,0.68 -0.49,1.18 -0.92,1.51 -0.43,0.33 -0.98,0.5 -1.64,0.5 -0.82,0 -1.49,-0.28 -2.02,-0.84 -0.53,-0.56 -0.79,-1.33 -0.79,-2.3 0,-1.03 0.26,-1.83 0.79,-2.39 0.53,-0.57 1.23,-0.86 2.09,-0.86 0.76,0 1.37,0.23 1.84,0.67 0.29,0.27 0.49,0.65 0.63,1.14l-1.23 0.29c-0.07,-0.31 -0.22,-0.57 -0.45,-0.75 -0.24,-0.19 -0.52,-0.28 -0.85,-0.28 -0.46,0 -0.83,0.17 -1.11,0.49 -0.29,0.33 -0.43,0.86 -0.43,1.6 0,0.78 0.14,1.33 0.42,1.66 0.28,0.33 0.65,0.5 1.1,0.5 0.33,0 0.61,-0.11 0.85,-0.32 0.24,-0.21 0.41,-0.54 0.52,-0.99zm4.66 2.27l0 -6.17 4.57 0 0 1.05 -3.32 0 0 1.37 3.09 0 0 1.04 -3.09 0 0 1.67 3.44 0 0 1.04 -4.69 0zm8.14 0l0 -6.17 1.21 0 2.54 4.14 0 -4.14 1.16 0 0 6.17 -1.25 0 -2.5 -4.05 0 4.05 -1.16 0zm8.29 -2l1.22 -0.12c0.07,0.41 0.22,0.71 0.44,0.9 0.22,0.19 0.52,0.28 0.9,0.28 0.4,0 0.7,-0.08 0.9,-0.25 0.2,-0.17 0.3,-0.37 0.3,-0.59 0,-0.15 -0.04,-0.27 -0.12,-0.38 -0.09,-0.1 -0.24,-0.19 -0.45,-0.26 -0.14,-0.06 -0.47,-0.14 -0.99,-0.27 -0.67,-0.17 -1.13,-0.37 -1.4,-0.62 -0.38,-0.34 -0.57,-0.75 -0.57,-1.24 0,-0.32 0.09,-0.61 0.27,-0.89 0.18,-0.27 0.43,-0.48 0.77,-0.62 0.33,-0.14 0.73,-0.22 1.21,-0.22 0.77,0 1.35,0.17 1.74,0.52 0.39,0.34 0.59,0.8 0.61,1.37l-1.25 0.04c-0.05,-0.32 -0.16,-0.54 -0.34,-0.68 -0.17,-0.14 -0.43,-0.21 -0.78,-0.21 -0.36,0 -0.64,0.07 -0.84,0.22 -0.13,0.1 -0.2,0.22 -0.2,0.39 0,0.14 0.06,0.27 0.19,0.37 0.15,0.13 0.53,0.27 1.14,0.42 0.6,0.14 1.05,0.29 1.34,0.44 0.29,0.15 0.52,0.36 0.68,0.63 0.16,0.26 0.24,0.59 0.24,0.98 0,0.35 -0.09,0.68 -0.29,0.99 -0.2,0.31 -0.47,0.54 -0.83,0.69 -0.36,0.15 -0.81,0.22 -1.35,0.22 -0.78,0 -1.37,-0.17 -1.79,-0.54 -0.42,-0.35 -0.67,-0.88 -0.75,-1.57zm8.47 2l0 -6.17 4.56 0 0 1.05 -3.31 0 0 1.37 3.08 0 0 1.04 -3.08 0 0 1.67 3.43 0 0 1.04 -4.68 0zm8.14 -6.17l2.27 0c0.51,0 0.9,0.04 1.17,0.12 0.36,0.11 0.67,0.3 0.93,0.57 0.25,0.27 0.45,0.61 0.58,1 0.14,0.39 0.21,0.88 0.21,1.46 0,0.51 -0.07,0.94 -0.19,1.31 -0.16,0.45 -0.38,0.81 -0.66,1.09 -0.22,0.21 -0.51,0.37 -0.88,0.49 -0.27,0.09 -0.64,0.13 -1.1,0.13l-2.33 0 0 -6.17zm1.25 1.05l0 4.08 0.92 0c0.35,0 0.6,-0.02 0.75,-0.06 0.2,-0.05 0.37,-0.13 0.5,-0.25 0.13,-0.13 0.24,-0.32 0.33,-0.6 0.08,-0.28 0.12,-0.65 0.12,-1.13 0,-0.48 -0.04,-0.84 -0.12,-1.1 -0.09,-0.25 -0.21,-0.45 -0.36,-0.59 -0.15,-0.15 -0.34,-0.24 -0.57,-0.29 -0.17,-0.04 -0.51,-0.06 -1.02,-0.06l-0.55 0z"/>
 </g>
</svg>
