<?xml version="1.0" encoding="UTF-8"?>
<!DOCTYPE svg PUBLIC "-//W3C//DTD SVG 1.1//EN" "http://www.w3.org/Graphics/SVG/1.1/DTD/svg11.dtd">
<!-- Creator: CorelDRAW 2021.5 -->
<svg xmlns="http://www.w3.org/2000/svg" xml:space="preserve" width="120px" height="42px" version="1.1" style="shape-rendering:geometricPrecision; text-rendering:geometricPrecision; image-rendering:optimizeQuality; fill-rule:evenodd; clip-rule:evenodd"
viewBox="0 0 120 42"
 xmlns:xlink="http://www.w3.org/1999/xlink"
 xmlns:xodm="http://www.corel.com/coreldraw/odm/2003">
 <defs>
  <style type="text/css">
   <![CDATA[
    .fil2 {fill:#1C511C}
    .fil5 {fill:#2C2255}
    .fil11 {fill:#2D2357}
    .fil13 {fill:#2F245B}
    .fil9 {fill:#352965}
    .fil12 {fill:#362A67}
    .fil8 {fill:#3B2E72}
    .fil3 {fill:#3CA536}
    .fil14 {fill:#3D2F76}
    .fil10 {fill:#3F307A}
    .fil16 {fill:#41337E}
    .fil15 {fill:#433481}
    .fil17 {fill:#453584}
    .fil6 {fill:#F7941E}
    .fil7 {fill:white}
    .fil4 {fill:#FEFEFE;fill-rule:nonzero}
    .fil1 {fill:#1C511C;fill-rule:nonzero}
    .fil0 {fill:#EDEDED;fill-rule:nonzero}
   ]]>
  </style>
 </defs>
 <g id="Layer_x0020_1">
  <metadata id="CorelCorpID_0Corel-Layer"/>
  <g id="_2032467473600">
   <path id="path3817_5_" class="fil0" d="M3.41 0.45l113.35 0.2c1.59,0 3,-0.23 3,3.16l-0.14 37.33 -119.07 0 0 -37.47c0,-1.67 0.16,-3.22 2.86,-3.22z" nodetypes="ccccccc"/>
   <path id="path120" class="fil1" d="M117.75 0l-115.5 0c-1.24,0 -2.25,1.01 -2.25,2.25l0 39.24c0,0.28 0.23,0.51 0.51,0.51l118.98 0c0.28,0 0.51,-0.23 0.51,-0.51l0 -39.24c0,-1.24 -1.01,-2.25 -2.25,-2.25zm-115.5 1.01l115.5 0c0.68,0 1.24,0.56 1.24,1.24 0,0 0,15.79 0,27.22l-82.56 0c-3.03,5.47 -8.86,9.18 -15.55,9.18 -6.69,0 -12.52,-3.71 -15.55,-9.18l-4.32 0c0,-11.43 0,-27.22 0,-27.22 0,-0.68 0.56,-1.24 1.24,-1.24z"/>
   <g>
    <path class="fil2" d="M15.02 34.43c-2.2,-0.34 -5.09,-2.8 -6.45,-4.51 -3.04,-3.85 -4.29,-8.77 -3.21,-13.58 1.66,-7.34 8.09,-12.42 15.64,-12.37 7.44,0.05 13.9,5.29 15.45,12.57 0.81,3.78 0.12,8.13 -1.87,11.46 -0.88,1.47 -1.88,2.73 -3.18,3.85 -1.16,1.01 -3.1,2.31 -4.62,2.6l-0.94 0.19 -3.93 -10.18 1.11 -0.4c2.01,-0.71 2.76,-3.34 2.28,-5.25 -0.52,-2.04 -2.36,-3.48 -4.48,-3.44 -3.65,0.09 -5.47,3.84 -3.91,6.98 0.69,1.39 1.17,1.23 2.22,2.05l0.67 0.53 -3.89 9.64 -0.89 -0.14z"/>
    <path class="fil3" d="M15.19 33.3l3.23 -8c-0.66,-0.52 -1.68,-0.7 -2.54,-2.45 -1.88,-3.8 0.31,-8.52 4.92,-8.62 2.88,-0.06 5.02,1.98 5.61,4.3 0.63,2.54 -0.46,5.7 -3.01,6.61l3.16 8.19c1.41,-0.27 3.29,-1.64 4.09,-2.34 1.15,-0.99 2.06,-2.09 2.95,-3.58 1.67,-2.8 2.55,-6.83 1.74,-10.63 -1.34,-6.27 -6.95,-11.62 -14.35,-11.67 -7.55,-0.05 -13.1,5.2 -14.51,11.48 -1.06,4.7 0.31,9.23 2.99,12.62 1.15,1.45 3.84,3.8 5.72,4.09z"/>
   </g>
   <path class="fil4" d="M48.18 38.04l0 -6.12 1.25 0 0 5.08 3.09 0 0 1.04 -4.34 0zm7.42 0l0 -6.17 1.25 0 0 6.17 -1.25 0zm8.78 -2.28l1.2 0.37c-0.18,0.68 -0.49,1.19 -0.92,1.52 -0.43,0.33 -0.98,0.49 -1.64,0.49 -0.82,0 -1.49,-0.28 -2.02,-0.84 -0.53,-0.56 -0.79,-1.32 -0.79,-2.3 0,-1.02 0.26,-1.82 0.79,-2.39 0.53,-0.57 1.23,-0.85 2.09,-0.85 0.76,0 1.37,0.22 1.84,0.67 0.28,0.26 0.49,0.64 0.63,1.14l-1.23 0.29c-0.07,-0.32 -0.22,-0.57 -0.45,-0.76 -0.24,-0.18 -0.52,-0.27 -0.85,-0.27 -0.46,0 -0.83,0.16 -1.11,0.49 -0.29,0.33 -0.43,0.86 -0.43,1.59 0,0.78 0.14,1.34 0.42,1.67 0.28,0.33 0.65,0.49 1.1,0.49 0.33,0 0.61,-0.1 0.85,-0.31 0.24,-0.21 0.41,-0.54 0.52,-1zm4.66 2.28l0 -6.17 4.57 0 0 1.04 -3.32 0 0 1.37 3.09 0 0 1.04 -3.09 0 0 1.68 3.44 0 0 1.04 -4.69 0zm8.14 0l0 -6.17 1.21 0 2.54 4.13 0 -4.13 1.15 0 0 6.17 -1.24 0 -2.5 -4.06 0 4.06 -1.16 0zm8.29 -2l1.22 -0.12c0.07,0.4 0.21,0.7 0.44,0.89 0.22,0.19 0.52,0.29 0.9,0.29 0.4,0 0.7,-0.09 0.9,-0.26 0.2,-0.16 0.3,-0.36 0.3,-0.59 0,-0.15 -0.04,-0.27 -0.12,-0.37 -0.09,-0.1 -0.24,-0.19 -0.45,-0.27 -0.15,-0.05 -0.47,-0.14 -0.99,-0.27 -0.67,-0.16 -1.13,-0.37 -1.4,-0.61 -0.38,-0.34 -0.57,-0.76 -0.57,-1.25 0,-0.31 0.09,-0.61 0.27,-0.88 0.18,-0.27 0.43,-0.48 0.77,-0.63 0.33,-0.14 0.73,-0.21 1.21,-0.21 0.77,0 1.35,0.17 1.74,0.51 0.39,0.34 0.59,0.8 0.61,1.37l-1.25 0.05c-0.05,-0.32 -0.16,-0.55 -0.34,-0.69 -0.17,-0.14 -0.43,-0.21 -0.78,-0.21 -0.36,0 -0.64,0.08 -0.84,0.22 -0.13,0.1 -0.2,0.23 -0.2,0.39 0,0.15 0.06,0.27 0.19,0.37 0.15,0.14 0.53,0.28 1.14,0.42 0.6,0.14 1.05,0.29 1.34,0.44 0.29,0.16 0.52,0.37 0.68,0.63 0.16,0.27 0.24,0.59 0.24,0.98 0,0.36 -0.09,0.69 -0.29,1 -0.2,0.31 -0.47,0.53 -0.83,0.68 -0.36,0.15 -0.81,0.23 -1.35,0.23 -0.78,0 -1.37,-0.18 -1.79,-0.54 -0.42,-0.36 -0.67,-0.88 -0.75,-1.57zm8.47 2l0 -6.17 4.56 0 0 1.04 -3.31 0 0 1.37 3.08 0 0 1.04 -3.08 0 0 1.68 3.43 0 0 1.04 -4.68 0zm8.14 -6.17l2.27 0c0.51,0 0.9,0.04 1.17,0.12 0.36,0.1 0.67,0.29 0.93,0.57 0.25,0.27 0.45,0.6 0.58,0.99 0.14,0.4 0.21,0.89 0.21,1.46 0,0.51 -0.07,0.95 -0.19,1.31 -0.16,0.45 -0.38,0.82 -0.66,1.09 -0.22,0.22 -0.51,0.38 -0.88,0.5 -0.27,0.08 -0.64,0.13 -1.1,0.13l-2.33 0 0 -6.17zm1.24 1.04l0 4.09 0.93 0c0.35,0 0.6,-0.02 0.75,-0.06 0.2,-0.05 0.37,-0.14 0.5,-0.26 0.13,-0.12 0.24,-0.32 0.33,-0.6 0.08,-0.27 0.12,-0.65 0.12,-1.12 0,-0.48 -0.04,-0.85 -0.12,-1.1 -0.09,-0.26 -0.21,-0.46 -0.36,-0.6 -0.15,-0.14 -0.34,-0.24 -0.57,-0.29 -0.17,-0.04 -0.51,-0.06 -1.02,-0.06l-0.56 0z"/>
   <g>
    <path class="fil5" d="M45.16 13.17l13.81 0.01 0 -0.12c-0.06,-0.22 -0.27,-0.72 -0.38,-0.93 -0.43,-0.87 -1.05,-1.73 -1.81,-2.34 -0.08,-0.07 -0.12,-0.12 -0.2,-0.18 -0.27,-0.21 -0.58,-0.46 -0.9,-0.63 -0.36,-0.19 -0.61,-0.33 -1.02,-0.49 -0.38,-0.14 -0.76,-0.24 -1.19,-0.32l-1.37 -0.15c-0.17,0 -0.18,0.02 -0.32,0.04 -0.47,0.03 -0.36,-0.02 -1.03,0.09 -0.44,0.07 -0.83,0.19 -1.19,0.32 -1.06,0.39 -1.75,0.93 -2.54,1.62l-0.53 0.6c-0.33,0.37 -0.68,0.93 -0.9,1.38 -0.15,0.29 -0.35,0.76 -0.43,1.1z"/>
    <path class="fil5" d="M89.12 15.49c0,-1.01 0.09,-1.86 0.57,-2.6 0.38,-0.6 0.99,-1.06 1.75,-1.06 0.63,0 0.89,-0.01 1.45,0.34 1.65,1.03 1.6,4.73 0.39,6 -1.16,1.22 -4.16,1.05 -4.16,-2.68zm-0.04 -3.42l0 -1.34 -1.51 0 0 12.61 1.51 0 0 -4.79 0.48 0.62c1.02,1.21 3.43,1.29 4.66,0.15 0.91,-0.85 1.52,-2.17 1.52,-3.69 0,-1.49 -0.17,-2.63 -0.97,-3.68 -0.54,-0.72 -1.42,-1.43 -2.66,-1.43 -1.53,0 -2.19,0.43 -2.97,1.47 -0.03,0.05 -0.03,0.05 -0.06,0.08z"/>
    <path class="fil5" d="M67.56 11.83l0.39 0c1.38,0 2.29,1.17 2.29,2.64l-5.28 0c0,-1.46 1.17,-2.64 2.6,-2.64zm-4.29 3.59c0,2.62 1.72,4.68 4.5,4.68 1,0 1.19,-0.01 2.19,-0.21 0.25,-0.06 0.5,-0.13 0.74,-0.21 0.25,-0.07 0.47,-0.19 0.7,-0.25l0 -1.44c-0.18,0.04 -0.43,0.21 -0.63,0.29 -1.22,0.48 -1.68,0.52 -3,0.52 -1.15,0 -2.24,-0.72 -2.62,-1.85 -0.27,-0.78 -0.14,-0.72 -0.26,-1.25l6.9 0c0,-0.97 0.01,-1.72 -0.29,-2.6 -0.11,-0.35 -0.35,-0.83 -0.58,-1.11 -0.1,-0.12 -0.17,-0.18 -0.27,-0.3 -0.2,-0.22 -0.31,-0.34 -0.59,-0.53 -0.49,-0.35 -1.02,-0.52 -1.64,-0.61 -1.13,-0.17 -2.67,0.12 -3.51,0.88 -0.36,0.33 -0.19,0.15 -0.56,0.56 -0.78,0.89 -1.08,2.26 -1.08,3.43z"/>
    <path class="fil5" d="M108.03 11.83c0.85,0 1.51,0.14 2.02,0.79 0.11,0.14 0.16,0.18 0.25,0.35 0.07,0.16 0.14,0.28 0.2,0.44 0.09,0.26 0.17,0.7 0.17,1.06l-5.32 0c0.15,-0.65 0.12,-1.2 0.79,-1.86 0.3,-0.3 0.38,-0.35 0.78,-0.55 0.28,-0.13 0.72,-0.23 1.11,-0.23zm-4.33 3.41c0,1.38 0.29,2.61 1.24,3.55 0.83,0.83 1.96,1.31 3.2,1.31 0.89,0 1.36,0 2.24,-0.22 0.48,-0.12 1.3,-0.41 1.45,-0.45l0 -1.44c-0.27,0.06 -1.43,0.81 -2.92,0.81 -0.76,0 -1.17,0.04 -1.89,-0.26 -0.36,-0.15 -0.62,-0.36 -0.88,-0.63 -0.49,-0.49 -0.82,-1.5 -0.82,-2.21l6.87 0c0,-1.71 0.02,-2.87 -1.28,-4.18 -1.5,-1.51 -4.75,-1.32 -6.14,0.47 -0.22,0.29 -0.34,0.45 -0.51,0.78 -0.04,0.06 -0.06,0.12 -0.09,0.19 -0.3,0.61 -0.47,1.52 -0.47,2.28z"/>
    <path class="fil5" d="M59.01 17.31l-2.49 0.01c-0.08,0.2 -0.23,0.54 -0.38,0.63 -0.02,0.1 -0.01,0.06 -0.08,0.16 0,0 -0.06,0.07 -0.06,0.08 -0.06,0.06 -0.02,0.02 -0.05,0.05 -0.16,0.22 -0.39,0.5 -0.61,0.63 -0.01,0.09 -0.04,0.08 -0.13,0.15 -0.11,0.08 -0.07,0.08 -0.21,0.13 -0.05,0.11 -0.54,0.39 -0.71,0.45 -0.13,0.12 -0.78,0.34 -0.99,0.39 -0.81,0.21 -1.65,0.21 -2.46,0 -0.2,-0.06 -0.87,-0.27 -0.96,-0.38 -0.25,-0.09 -0.57,-0.3 -0.73,-0.45 -0.14,-0.07 -0.27,-0.18 -0.34,-0.29 -0.16,-0.08 -0.21,-0.16 -0.32,-0.3 -0.11,-0.12 -0.2,-0.16 -0.24,-0.31 -0.1,-0.05 -0.18,-0.19 -0.24,-0.29 -0.13,-0.16 -0.29,-0.44 -0.36,-0.65l-2.49 0c0.11,0.22 0.21,0.62 0.43,1.06 0.6,1.2 1.36,2 2.44,2.8 1.07,0.81 2.6,1.25 4.04,1.25 1.37,0 2.52,-0.31 3.59,-0.92 0.29,-0.17 0.64,-0.4 0.89,-0.62 0.32,-0.29 0.43,-0.35 0.77,-0.71l0.69 -0.83c0.22,-0.29 0.41,-0.61 0.57,-0.94 0.14,-0.28 0.35,-0.76 0.43,-1.1z"/>
    <path class="fil5" d="M96.37 12.99c0,0.88 0.05,1.41 0.73,2.01 1.38,1.23 4.63,0.62 4.63,2.46 0,0.97 -0.99,1.37 -1.98,1.37 -0.83,0 -1.3,-0.02 -2.07,-0.28 -0.24,-0.08 -0.46,-0.16 -0.7,-0.25 -0.22,-0.09 -0.5,-0.27 -0.68,-0.31l0 1.58c0.16,0.01 0.23,0.05 0.37,0.1 1.81,0.6 5.02,0.9 6.24,-0.96 0.5,-0.77 0.48,-1.92 0,-2.72 -0.4,-0.65 -1.32,-1.03 -2.06,-1.21l-1.33 -0.33c-0.85,-0.24 -1.83,-0.41 -1.67,-1.53 0.21,-1.42 2.73,-1.18 3.66,-0.95 0.64,0.16 1.08,0.41 1.27,0.45l0 -1.4c-0.28,-0.15 -0.85,-0.29 -1.23,-0.36 -0.61,-0.13 -1.17,-0.14 -1.83,-0.14 -0.95,0 -1.72,0.22 -2.29,0.6 -0.28,0.18 -0.53,0.44 -0.71,0.73 -0.17,0.26 -0.35,0.73 -0.35,1.14z"/>
    <path class="fil5" d="M72.32 14.96c0,1.26 0.06,2.2 0.74,3.27 0.14,0.21 0.33,0.46 0.5,0.63 1.27,1.26 3.03,1.5 4.72,1.11 0.4,-0.1 0.89,-0.25 1.26,-0.43l0 -1.41c-0.17,0.04 -0.34,0.16 -0.51,0.23 -0.97,0.4 -1.31,0.44 -2.35,0.44 -1.36,0 -2.24,-0.93 -2.6,-2.08 -0.37,-1.18 -0.2,-2.89 0.53,-3.87 0.41,-0.54 1.2,-1.02 2.15,-1.02 0.97,0 1.64,0.11 2.51,0.55 0.12,0.06 0.14,0.1 0.27,0.11l0 -1.41c-0.11,-0.02 -0.16,-0.06 -0.25,-0.1 -1.53,-0.63 -3.73,-0.69 -5.11,0.28 -0.7,0.48 -1.16,1.05 -1.49,1.86 -0.19,0.48 -0.37,1.18 -0.37,1.84z"/>
    <polygon class="fil5" points="80.88,19.89 82.39,19.89 82.39,7.21 80.88,7.21 "/>
    <path class="fil6" d="M43.23 14.92c0,1.63 0.2,2.58 0.9,3.89 0.07,0.12 0.09,0.18 0.16,0.29 0.12,0.21 0.25,0.39 0.39,0.57 0.21,0.29 0.64,0.82 0.89,1.01 0.1,0.08 0.15,0.14 0.24,0.22 0.88,0.83 2.27,1.46 3.47,1.7 0.6,0.12 1.04,0.14 1.77,0.14l0 -0.03c-0.69,0 -2.04,-0.55 -2.62,-0.87 -3.97,-2.21 -5.25,-7.31 -2.38,-11.17 0.34,-0.45 0.85,-0.96 1.3,-1.31 0.96,-0.75 1.76,-1.12 2.92,-1.45 0.14,-0.04 0.56,-0.13 0.74,-0.13l0 -0.04c-1.66,0 -3.03,0.3 -4.39,1.21 -0.38,0.25 -0.73,0.51 -1.04,0.82 -0.34,0.34 -0.59,0.6 -0.88,0.99 -0.8,1.06 -1.47,2.7 -1.47,4.16z"/>
    <polygon class="fil5" points="84.26,19.89 85.77,19.89 85.77,10.73 84.26,10.73 "/>
    <path class="fil7" d="M44.88 15.65l14.37 0c0.09,-0.2 0.04,-0.56 0.04,-0.8l0 0 -14.37 0c-0.05,0.09 -0.03,0 -0.04,0.14 0,0.06 0,0.16 0,0.22 0,0.14 0,0.29 0,0.44z"/>
    <path class="fil7" d="M44.99 13.97c1.36,0 14,0.06 14.15,-0.03 -0.02,-0.12 -0.04,-0.24 -0.08,-0.38 -0.03,-0.13 -0.09,-0.25 -0.09,-0.38l-13.81 -0.01c-0.06,0.26 -0.11,0.53 -0.17,0.8z"/>
    <path class="fil7" d="M45.16 17.32l2.49 0 8.87 0 2.49 -0.01 0.14 -0.59c0,-0.01 0.02,-0.11 0.02,-0.11l-0.01 -0.08c-0.01,0 -0.01,-0.01 -0.01,-0.02l-2.33 0 -9.49 0 -2.34 0.01c0.03,0.12 0.05,0.26 0.08,0.4 0.04,0.15 0.06,0.27 0.09,0.4z"/>
    <path class="fil8" d="M48.01 17.97c0.07,-0.16 -0.04,-0.02 0.08,-0.07 0.1,-0.03 0.27,-0.01 0.38,-0.01l7.44 0c0.17,-0.01 0.17,-0.04 0.23,0.06 0.15,-0.09 0.3,-0.43 0.38,-0.63l-8.87 0c0.07,0.21 0.23,0.49 0.36,0.65z"/>
    <polygon class="fil9" points="47.26,16.12 56.91,16.1 56.97,15.7 59.25,15.7 59.25,15.65 44.88,15.65 44.88,15.7 47.21,15.7 "/>
    <path class="fil5" d="M44.99 13.97c0,0.1 -0.03,0.29 -0.05,0.42 -0.01,0.12 -0.02,0.22 -0.02,0.39l2.27 0 0.03 -0.29c0,-0.15 0.07,-0.32 0.13,-0.42l9.48 0c0.04,0.14 0.12,0.25 0.12,0.42l0.03 0.29 2.17 0.01c0.19,0.04 0.06,0 0.14,0.06l0 0c0,-0.34 -0.07,-0.58 -0.07,-0.88l-0.08 -0.03c-0.15,0.09 -12.79,0.03 -14.15,0.03z"/>
    <path class="fil10" d="M48.81 18.87c0.03,-0.1 0.56,-0.06 0.76,-0.06l5.42 0c0.06,0 0.17,-0.01 0.22,0 0.19,0.01 0.11,-0.03 0.13,0.06 0.22,-0.13 0.45,-0.41 0.61,-0.63 -0.6,-0.06 -7.66,-0.01 -7.7,0.02 0.04,0.15 0.13,0.19 0.24,0.31 0.11,0.14 0.16,0.22 0.32,0.3z"/>
    <path class="fil11" d="M47.22 14.49l9.73 0c0,-0.17 -0.08,-0.28 -0.12,-0.42l-9.48 0c-0.06,0.1 -0.13,0.27 -0.13,0.42z"/>
    <polygon class="fil12" points="47.33,16.51 56.82,16.51 56.91,16.1 47.26,16.12 "/>
    <path class="fil13" d="M44.92 14.78l0 0.07 14.37 0c-0.08,-0.06 0.05,-0.02 -0.14,-0.06l-2.17 -0.01 -0.03 -0.29 -9.73 0 -0.03 0.29 -2.27 0z"/>
    <polygon class="fil6" points="84.26,9.04 85.77,9.04 85.77,7.14 84.26,7.14 "/>
    <path class="fil14" d="M48.25 18.26c0.04,-0.03 7.1,-0.08 7.7,-0.02 0.03,-0.03 -0.01,0.01 0.05,-0.05 0,-0.01 0.06,-0.08 0.06,-0.08 0.07,-0.1 0.06,-0.06 0.08,-0.16 -0.06,-0.1 -0.06,-0.07 -0.23,-0.06l-7.44 0c-0.11,0 -0.28,-0.02 -0.38,0.01 -0.12,0.05 -0.01,-0.09 -0.08,0.07 0.06,0.1 0.14,0.24 0.24,0.29z"/>
    <path class="fil15" d="M49.88 19.61c0,-0.1 0.08,-0.06 0.21,-0.06l3.95 0c0.15,0 0.22,-0.04 0.25,0.05 0.17,-0.06 0.66,-0.34 0.71,-0.45 -0.1,-0.11 -0.54,-0.04 -0.71,-0.04l-5.01 0c-0.15,0.02 -0.06,-0.02 -0.13,0.05 0.16,0.15 0.48,0.36 0.73,0.45z"/>
    <path class="fil5" d="M44.99 16.52l2.34 -0.01 -0.07 -0.39 -0.05 -0.42 -2.33 0c0,0.1 0.08,0.75 0.11,0.82z"/>
    <path class="fil16" d="M49.15 19.16c0.07,-0.07 -0.02,-0.03 0.13,-0.05l5.01 0c0.17,0 0.61,-0.07 0.71,0.04 0.14,-0.05 0.1,-0.05 0.21,-0.13 0.09,-0.07 0.12,-0.06 0.13,-0.15 -0.02,-0.09 0.06,-0.05 -0.13,-0.06 -0.05,-0.01 -0.16,0 -0.22,0l-5.42 0c-0.2,0 -0.73,-0.04 -0.76,0.06 0.07,0.11 0.2,0.22 0.34,0.29z"/>
    <path class="fil17" d="M54.29 19.6c-0.03,-0.09 -0.1,-0.05 -0.25,-0.05l-3.95 0c-0.13,0 -0.21,-0.04 -0.21,0.06 0.09,0.11 0.76,0.32 0.96,0.38 0.81,0.21 1.65,0.21 2.46,0 0.21,-0.05 0.86,-0.27 0.99,-0.39z"/>
    <path class="fil5" d="M56.91 16.1l-0.09 0.41 2.33 0c0.03,-0.07 0.1,-0.69 0.1,-0.81l-2.28 0 -0.06 0.4z"/>
    <path class="fil5" d="M110.42 8.23c0,-1 1.48,-0.96 1.48,-0.03 0,0.2 -0.08,0.37 -0.18,0.48 -0.54,0.58 -1.3,0.09 -1.3,-0.45zm-0.14 -0.07c0,0.55 0.37,0.92 0.95,0.92 0.41,0 0.82,-0.41 0.82,-0.88 0,-0.78 -1.01,-1.13 -1.51,-0.59 -0.1,0.1 -0.26,0.36 -0.26,0.55z"/>
    <path class="fil5" d="M111.3 8.13c-0.07,0.02 -0.08,0.03 -0.17,0.03l-0.11 0 0 -0.31c0.24,0 0.39,0.05 0.28,0.28zm-0.45 0.6l0.17 0 0 -0.39c0.2,0 0.15,-0.01 0.23,0.12 0.06,0.12 0.1,0.14 0.13,0.27l0.21 0 -0.25 -0.43c0.12,-0.16 0.18,-0.03 0.18,-0.38 0,-0.27 -0.5,-0.22 -0.67,-0.22l0 1.03z"/>
   </g>
  </g>
 </g>
</svg>
