<?xml version="1.0" encoding="UTF-8"?>
<!DOCTYPE svg PUBLIC "-//W3C//DTD SVG 1.1//EN" "http://www.w3.org/Graphics/SVG/1.1/DTD/svg11.dtd">
<!-- Creator: CorelDRAW 2021.5 -->
<svg xmlns="http://www.w3.org/2000/svg" xml:space="preserve" width="120px" height="42px" version="1.1" style="shape-rendering:geometricPrecision; text-rendering:geometricPrecision; image-rendering:optimizeQuality; fill-rule:evenodd; clip-rule:evenodd"
viewBox="0 0 120 42"
 xmlns:xlink="http://www.w3.org/1999/xlink"
 xmlns:xodm="http://www.corel.com/coreldraw/odm/2003">
 <defs>
  <style type="text/css">
   <![CDATA[
    .fil2 {fill:#1C511C}
    .fil3 {fill:#3CA536}
    .fil4 {fill:#FEFEFE;fill-rule:nonzero}
    .fil7 {fill:#373435;fill-rule:nonzero}
    .fil6 {fill:black;fill-rule:nonzero}
    .fil1 {fill:#1C511C;fill-rule:nonzero}
    .fil0 {fill:#EDEDED;fill-rule:nonzero}
    .fil5 {fill:white;fill-rule:nonzero}
   ]]>
  </style>
 </defs>
 <g id="Layer_x0020_1">
  <metadata id="CorelCorpID_0Corel-Layer"/>
  <g id="_2032710949424">
   <path id="path3817_5_" class="fil0" d="M3.41 0.45l113.35 0.2c1.59,0 3,-0.23 3,3.16l-0.14 37.33 -119.07 0 0 -37.47c0,-1.67 0.16,-3.22 2.86,-3.22z" nodetypes="ccccccc"/>
   <path id="path120" class="fil1" d="M117.75 0l-115.5 0c-1.24,0 -2.25,1.01 -2.25,2.25l0 39.24c0,0.28 0.23,0.51 0.51,0.51l118.98 0c0.28,0 0.51,-0.23 0.51,-0.51l0 -39.24c0,-1.24 -1.01,-2.25 -2.25,-2.25zm-115.5 1.01l115.5 0c0.68,0 1.24,0.56 1.24,1.24 0,0 0,15.79 0,27.22l-82.56 0c-3.03,5.47 -8.86,9.18 -15.55,9.18 -6.69,0 -12.52,-3.71 -15.55,-9.18l-4.32 0c0,-11.43 0,-27.22 0,-27.22 0,-0.68 0.56,-1.24 1.24,-1.24z"/>
   <g>
    <path class="fil2" d="M15.02 34.43c-2.2,-0.34 -5.09,-2.8 -6.45,-4.51 -3.04,-3.85 -4.29,-8.77 -3.21,-13.58 1.66,-7.34 8.09,-12.42 15.64,-12.37 7.44,0.05 13.9,5.29 15.45,12.57 0.81,3.78 0.12,8.13 -1.87,11.46 -0.88,1.47 -1.88,2.73 -3.18,3.85 -1.16,1.01 -3.1,2.31 -4.62,2.6l-0.94 0.19 -3.93 -10.18 1.11 -0.4c2.01,-0.71 2.76,-3.34 2.28,-5.25 -0.52,-2.04 -2.36,-3.48 -4.48,-3.44 -3.65,0.09 -5.47,3.84 -3.91,6.98 0.69,1.39 1.17,1.23 2.22,2.05l0.67 0.53 -3.89 9.64 -0.89 -0.14z"/>
    <path class="fil3" d="M15.19 33.3l3.23 -8c-0.66,-0.52 -1.68,-0.7 -2.54,-2.45 -1.88,-3.8 0.31,-8.52 4.92,-8.62 2.88,-0.06 5.02,1.98 5.61,4.3 0.63,2.54 -0.46,5.7 -3.01,6.61l3.16 8.19c1.41,-0.27 3.29,-1.64 4.09,-2.34 1.15,-0.99 2.06,-2.09 2.95,-3.58 1.67,-2.8 2.55,-6.83 1.74,-10.63 -1.34,-6.27 -6.95,-11.62 -14.35,-11.67 -7.55,-0.05 -13.1,5.2 -14.51,11.48 -1.06,4.7 0.31,9.23 2.99,12.62 1.15,1.45 3.84,3.8 5.72,4.09z"/>
   </g>
   <path class="fil4" d="M48.18 38.04l0 -6.12 1.25 0 0 5.08 3.09 0 0 1.04 -4.34 0zm7.42 0l0 -6.17 1.25 0 0 6.17 -1.25 0zm8.78 -2.28l1.2 0.37c-0.18,0.68 -0.49,1.19 -0.92,1.52 -0.43,0.33 -0.98,0.49 -1.64,0.49 -0.82,0 -1.49,-0.28 -2.02,-0.84 -0.53,-0.56 -0.79,-1.32 -0.79,-2.3 0,-1.02 0.26,-1.82 0.79,-2.39 0.53,-0.57 1.23,-0.85 2.09,-0.85 0.76,0 1.37,0.22 1.84,0.67 0.28,0.26 0.49,0.64 0.63,1.14l-1.23 0.29c-0.07,-0.32 -0.22,-0.57 -0.45,-0.76 -0.24,-0.18 -0.52,-0.27 -0.85,-0.27 -0.46,0 -0.83,0.16 -1.11,0.49 -0.29,0.33 -0.43,0.86 -0.43,1.59 0,0.78 0.14,1.34 0.42,1.67 0.28,0.33 0.65,0.49 1.1,0.49 0.33,0 0.61,-0.1 0.85,-0.31 0.24,-0.21 0.41,-0.54 0.52,-1zm4.66 2.28l0 -6.17 4.57 0 0 1.04 -3.32 0 0 1.37 3.09 0 0 1.04 -3.09 0 0 1.68 3.44 0 0 1.04 -4.69 0zm8.14 0l0 -6.17 1.21 0 2.54 4.13 0 -4.13 1.15 0 0 6.17 -1.24 0 -2.5 -4.06 0 4.06 -1.16 0zm8.29 -2l1.22 -0.12c0.07,0.4 0.21,0.7 0.44,0.89 0.22,0.19 0.52,0.29 0.9,0.29 0.4,0 0.7,-0.09 0.9,-0.26 0.2,-0.16 0.3,-0.36 0.3,-0.59 0,-0.15 -0.04,-0.27 -0.12,-0.37 -0.09,-0.1 -0.24,-0.19 -0.45,-0.27 -0.15,-0.05 -0.47,-0.14 -0.99,-0.27 -0.67,-0.16 -1.13,-0.37 -1.4,-0.61 -0.38,-0.34 -0.57,-0.76 -0.57,-1.25 0,-0.31 0.09,-0.61 0.27,-0.88 0.18,-0.27 0.43,-0.48 0.77,-0.63 0.33,-0.14 0.73,-0.21 1.21,-0.21 0.77,0 1.35,0.17 1.74,0.51 0.39,0.34 0.59,0.8 0.61,1.37l-1.25 0.05c-0.05,-0.32 -0.16,-0.55 -0.34,-0.69 -0.17,-0.14 -0.43,-0.21 -0.78,-0.21 -0.36,0 -0.64,0.08 -0.84,0.22 -0.13,0.1 -0.2,0.23 -0.2,0.39 0,0.15 0.06,0.27 0.19,0.37 0.15,0.14 0.53,0.28 1.14,0.42 0.6,0.14 1.05,0.29 1.34,0.44 0.29,0.16 0.52,0.37 0.68,0.63 0.16,0.27 0.24,0.59 0.24,0.98 0,0.36 -0.09,0.69 -0.29,1 -0.2,0.31 -0.47,0.53 -0.83,0.68 -0.36,0.15 -0.81,0.23 -1.35,0.23 -0.78,0 -1.37,-0.18 -1.79,-0.54 -0.42,-0.36 -0.67,-0.88 -0.75,-1.57zm8.47 2l0 -6.17 4.56 0 0 1.04 -3.31 0 0 1.37 3.08 0 0 1.04 -3.08 0 0 1.68 3.43 0 0 1.04 -4.68 0zm8.14 -6.17l2.27 0c0.51,0 0.9,0.04 1.17,0.12 0.36,0.1 0.67,0.29 0.93,0.57 0.25,0.27 0.45,0.6 0.58,0.99 0.14,0.4 0.21,0.89 0.21,1.46 0,0.51 -0.07,0.95 -0.19,1.31 -0.16,0.45 -0.38,0.82 -0.66,1.09 -0.22,0.22 -0.51,0.38 -0.88,0.5 -0.27,0.08 -0.64,0.13 -1.1,0.13l-2.33 0 0 -6.17zm1.24 1.04l0 4.09 0.93 0c0.35,0 0.6,-0.02 0.75,-0.06 0.2,-0.05 0.37,-0.14 0.5,-0.26 0.13,-0.12 0.24,-0.32 0.33,-0.6 0.08,-0.27 0.12,-0.65 0.12,-1.12 0,-0.48 -0.04,-0.85 -0.12,-1.1 -0.09,-0.26 -0.21,-0.46 -0.36,-0.6 -0.15,-0.14 -0.34,-0.24 -0.57,-0.29 -0.17,-0.04 -0.51,-0.06 -1.02,-0.06l-0.56 0z"/>
   <g>
    <g>
     <path class="fil5" d="M91.27 17.22c0,0 -1.32,0.29 -1.32,0.29 0,0 0.77,-1.21 0.77,-1.21 0,0 0.9,-2.02 0.9,-2.02 0,0 -2.67,-1.16 -2.67,-1.16 0,0 -1.64,-2.59 -1.64,-2.59 0,0 -0.21,-3.27 -0.21,-3.27 0,0 1.24,-2.57 1.24,-2.57 0,0 2.59,-1.59 2.59,-1.59 0,0 3.21,-0.17 3.21,-0.17 0,0 1.96,0.99 1.96,0.99 0,0 1.11,0.07 1.11,0.07 0,0 -0.84,0.78 -0.84,0.78 0,0 -2.57,-0.26 -2.57,-0.26 0,0 -2.28,0.62 -2.28,0.62 0,0 -1.28,1.47 -1.28,1.47 0,0 -0.41,2.05 -0.41,2.05 0,0 0.85,1.56 0.85,1.56 0,0 1.15,0.13 1.15,0.13 0,0 4.13,-4.1 4.13,-4.1 0,0 2.16,-0.3 2.16,-0.3 0,0 2.15,1.22 2.15,1.22 0,0 0.96,-0.74 0.96,-0.74 0,0 1.43,-0.49 1.43,-0.49 0,0 1.76,0.6 1.76,0.6 0,0 2.93,3.54 2.93,3.54 0,0 1.07,0.19 1.07,0.19 0,0 0.88,-1.18 0.88,-1.18 0,0 -0.08,-2.17 -0.08,-2.17 0,0 -1.19,-1.7 -1.19,-1.7 0,0 -1.66,-0.56 -1.66,-0.56 0,0 -1.35,0.24 -1.35,0.24 0,0 -1.68,-0.14 -1.68,-0.14 0,0 -0.23,-0.53 -0.23,-0.53 0,0 1.39,-0.54 1.39,-0.54 0,0 1.11,-0.57 1.11,-0.57 0,0 1.71,-0.11 1.71,-0.11 0,0 2.51,0.98 2.51,0.98 0,0 1.77,2.45 1.77,2.45 0,0 0.23,3.47 0.23,3.47 0,0 -1.52,2.83 -1.52,2.83 0,0 -2.15,1.08 -2.15,1.08 0,0 0.05,0.82 0.05,0.82 0,0 0.6,0.08 0.6,0.08 0,0 -0.24,0.55 -0.24,0.55 0,0 -1.4,0.05 -1.4,0.05 0,0 -2.69,-1.18 -2.69,-1.18 0,0 0.39,1.61 0.39,1.61 0,0 1.32,0 1.32,0 0,0 0.39,1.37 0.39,1.37 0,0 -1.32,1.54 -1.32,1.54 0,0 0.72,0.85 0.72,0.85 0,0 -0.91,0.85 -0.91,0.85 0,0 -0.14,1.29 -0.14,1.29 0,0 -1.84,0.54 -1.84,0.54 0,0 0.45,1.45 0.45,1.45 0,0 -2.85,2.55 -2.85,2.55 0,0 -1.96,-2.43 -1.96,-2.43 0,0 -1.41,-0.12 -1.41,-0.12 0,0 0.4,-1.45 0.4,-1.45 0,0 -1.61,-0.74 -1.61,-0.74 0,0 0.03,-1.09 0.03,-1.09 0,0 -1.12,-1.11 -1.12,-1.11l-0.88 -3.04c0,0 -2.87,1.02 -2.87,1.02l0 0z"/>
     <path class="fil6" d="M92.27 17c-0.17,0.01 -0.39,0.09 -0.54,0.36 -0.12,0.21 -0.4,0.25 -0.54,0.2 -0.22,-0.07 -0.5,-0.12 -0.77,0.07 -0.27,0.2 -0.57,0.05 -0.52,-0.3 0.06,-0.36 0.18,-0.67 0.52,-0.87 0.74,-0.43 0.23,-0.72 0.64,-1.15 0.4,-0.43 0.31,-0.56 0.3,-1.14 -1.38,-0.21 -2.16,-0.61 -3.03,-1.7 -0.87,-1.09 -1.21,-1.98 -1.3,-3.35 -0.09,-1.37 -0.01,-2.25 0.58,-3.39 0.59,-1.13 1.21,-1.68 2.29,-2.24 1.07,-0.57 2.13,-0.7 3.1,-0.69 0.98,0.02 1.63,0.09 2.18,0.4 0.55,0.32 1.06,0.71 1.38,0.72 0.32,0 0.54,-0.08 0.69,-0.2 0.05,1.06 -0.91,1.15 -1.76,1.17 -0.85,0.02 -1.38,-0.33 -2.16,-0.2 -0.79,0.13 -2.08,0.49 -2.7,1.58 -0.63,1.09 -0.65,1.48 -0.6,2.39 0.05,0.92 0.84,1.6 1.29,1.61 0.44,0 0.54,-0.13 0.93,-0.38 0.39,-0.25 2.37,-2.71 3.05,-3.26 0.68,-0.56 1.35,-0.73 2.07,-0.74 0.72,0 0.91,0.02 1.49,0.26 0.58,0.24 0.94,0.68 1.41,0.95 0.24,-0.15 0.39,-0.36 0.61,-0.52 0.78,-0.57 1.19,-0.73 2.13,-0.64 0.54,0.06 1.21,0.36 1.62,0.71 0.72,0.63 1.31,1.5 1.8,2.17 0.37,0.51 0.81,1.13 1.44,1.32 0.69,0.21 1.2,-0.68 1.28,-1.17 0.04,-0.28 0.1,-0.52 0.1,-0.83 0,-0.31 -0.03,-0.68 -0.12,-1.01 -0.09,-0.32 -0.24,-0.63 -0.41,-0.9 -0.26,-0.43 -0.7,-0.88 -1.16,-1.11 -0.25,-0.13 -0.85,-0.37 -1.24,-0.38 -0.46,-0.01 -0.81,0.15 -1.24,0.18 -0.52,0.03 -1.45,0.15 -1.86,-0.25 -0.26,-0.26 -0.29,-0.43 -0.34,-0.76 0.12,0.09 0.28,0.15 0.42,0.16 0.32,0.03 0.63,-0.23 0.89,-0.39 0.22,-0.12 0.53,-0.35 0.81,-0.47 0.73,-0.29 1.63,-0.28 2.4,-0.2 0.62,0.06 1.42,0.33 1.97,0.64 0.54,0.31 1.07,0.83 1.45,1.32 0.49,0.62 0.75,1.15 0.93,1.92 0.22,0.98 0.28,2.46 0.01,3.42 -0.21,0.77 -0.92,1.94 -1.52,2.52 -0.6,0.56 -1.29,0.84 -2.07,0.99 0.03,0.15 0.04,0.3 0.08,0.43 0.05,0.18 0.16,0.39 0.39,0.32 0.09,-0.02 0.14,-0.04 0.26,0.06 0.12,0.1 0.05,0.5 -0.28,0.68 -0.17,0.1 -0.35,0.12 -0.62,0.12 -0.27,0.01 -0.69,0.01 -0.99,-0.04 -0.29,-0.06 -0.47,-0.29 -0.79,-0.32 -0.51,-0.06 -0.89,-0.43 -1.3,-0.69 -0.17,-0.1 -0.22,-0.11 -0.32,-0.16 0.05,0.16 0.12,0.33 0.16,0.48 0.03,0.16 0.02,0.3 0.04,0.42 0.01,0.13 0.05,0.22 0.07,0.32 0.08,0.07 0.1,0.18 0.24,0.22 0.14,0.03 0.35,-0.02 0.49,-0.04 0.14,-0.02 0.23,-0.09 0.34,-0.07 0.11,0.02 0.21,0.1 0.3,0.17 0.09,0.07 0.17,0.08 0.25,0.27 0.07,0.18 0.14,0.55 0.15,0.8 0.01,0.25 -0.02,0.48 -0.09,0.67 -0.08,0.2 -0.14,0.29 -0.34,0.49 -0.2,0.19 -0.53,0.48 -0.86,0.68 0.06,0.09 0.09,0.17 0.18,0.27 0.1,0.09 0.29,0.2 0.38,0.3 0.09,0.11 0.13,0.18 0.13,0.29 0,0.12 0,0.26 -0.1,0.39 -0.23,0.31 -0.5,0.36 -0.83,0.51 0.06,0.35 0.1,0.6 0.02,0.94 -0.03,0.15 -0.11,0.47 -0.28,0.55 -0.18,0.08 -0.51,0.04 -0.73,0.08 -0.21,0.03 -0.33,0.06 -0.5,0.09 -0.1,0.15 -0.25,0.31 -0.3,0.44 -0.05,0.13 -0.03,0.18 0.01,0.31 0.04,0.14 0.19,0.33 0.23,0.49 0.04,0.16 0.05,0.32 0.01,0.48 -0.04,0.16 -0.1,0.27 -0.24,0.41 -0.13,0.14 -0.39,0.25 -0.52,0.36 -0.14,0.12 -0.27,0.13 -0.23,0.32 0.05,0.25 0.42,0.67 0.7,0.77 0.16,0.06 0.38,0.04 0.57,-0.04 -0.01,0.22 -0.2,0.37 -0.32,0.51 0.33,-0.1 0.66,-0.28 0.88,-0.52 -0.07,0.21 -0.31,0.55 -0.67,0.85 -0.36,0.3 -0.35,0.23 -0.53,0.35 0.32,0.07 0.63,0.05 0.88,0.01 -0.14,0.07 -0.37,0.18 -0.67,0.21 -0.3,0.03 -0.48,0.01 -0.75,-0.06 -0.27,-0.06 -0.52,-0.31 -0.85,-0.48 0.03,0.12 0.05,0.27 0.19,0.4 0.14,0.12 0.35,0.18 0.57,0.29 -0.28,-0.03 -0.58,-0.04 -0.86,-0.1 -0.2,-0.05 -0.34,-0.09 -0.49,-0.17 -0.15,-0.07 -0.27,-0.18 -0.4,-0.27 0.06,0.12 0.08,0.26 0.19,0.36 0.11,0.1 0.29,0.14 0.43,0.21 -0.15,0 -0.29,0.03 -0.45,-0.01 -0.15,-0.04 -0.3,-0.1 -0.46,-0.22 -0.16,-0.12 -0.33,-0.26 -0.46,-0.41 -0.14,-0.15 -0.31,-0.34 -0.36,-0.48 -0.05,-0.14 0.03,-0.23 0.05,-0.35 -0.1,0.06 -0.21,0.1 -0.29,0.18 -0.07,0.1 -0.13,0.18 -0.1,0.34 0.03,0.15 0.18,0.35 0.28,0.52 -0.31,-0.25 -0.48,-0.35 -0.55,-0.65 -0.07,-0.28 0.11,-0.54 0.24,-0.75 0.07,-0.11 0.17,-0.21 0.23,-0.31 -0.14,-0.14 -0.3,-0.25 -0.42,-0.41 -0.12,-0.15 -0.17,-0.36 -0.29,-0.51 -0.12,-0.15 -0.28,-0.24 -0.42,-0.36 0.12,0.27 0.33,0.6 0.37,0.8 0.05,0.21 -0.05,0.34 -0.12,0.45 -0.07,0.11 -0.19,0.14 -0.31,0.21 -0.11,0.06 -0.28,0.01 -0.35,0.11 -0.07,0.1 -0.09,0.26 -0.02,0.36l0.26 0.41c-0.1,-0.04 -0.26,-0.19 -0.34,-0.29 -0.07,-0.1 -0.19,-0.19 -0.21,-0.33 -0.01,-0.14 -0.02,-0.25 0.07,-0.38 0.09,-0.12 0.33,-0.16 0.44,-0.25 0.11,-0.09 0.17,-0.16 0.16,-0.28 0,-0.12 -0.12,-0.2 -0.22,-0.28 -0.31,-0.23 -0.71,-0.45 -0.97,-0.73 -0.15,-0.15 -0.22,-0.28 -0.25,-0.39 -0.03,-0.11 0,-0.19 0.07,-0.33 0.08,-0.13 0.33,-0.31 0.36,-0.46 0.03,-0.14 -0.1,-0.17 -0.21,-0.23 -0.12,-0.05 -0.34,0.03 -0.44,-0.06 -0.11,-0.09 0.03,-0.28 -0.09,-0.38 -0.12,-0.1 -0.4,-0.05 -0.54,-0.16 -0.14,-0.11 -0.2,-0.24 -0.25,-0.41 -0.05,-0.16 -0.06,-0.33 -0.02,-0.45 0.03,-0.12 0.13,-0.14 0.19,-0.2 0.06,-0.06 0.11,-0.11 0.03,-0.2 -0.08,-0.09 -0.34,0.01 -0.49,-0.11 -0.15,-0.11 -0.06,-0.39 -0.17,-0.51 -0.11,-0.11 -0.3,-0.07 -0.4,-0.1 -0.1,-0.04 -0.14,0.09 -0.2,-0.12 -0.06,-0.21 -0.07,-0.83 -0.15,-1.06 -0.08,-0.23 -0.25,-0.01 -0.32,-0.24 -0.08,-0.23 -0.01,-0.6 -0.04,-0.95l-0.16 -0.94c-0.54,0.36 -0.9,0.48 -1.48,0.58 -0.05,1.42 -0.18,2.26 0.3,3.85 0.48,1.58 1.46,2.51 2.79,3.85 -1.75,-1.3 -2.58,-2.37 -3.1,-3.73 -0.52,-1.36 -0.42,-2.5 -0.37,-3.81zm9.27 -0.57c0.13,0 0.3,0.04 0.39,0.1 0.09,0.06 0.19,0.11 0.28,0.2 0.21,0.22 0.37,0.48 0.45,0.78 0.04,0.19 0.05,0.44 0.06,0.66 -0.06,-0.21 -0.1,-0.42 -0.2,-0.61 -0.14,-0.29 -0.39,-0.58 -0.7,-0.71 -0.1,-0.05 -0.16,-0.04 -0.22,-0.03 0.03,0.04 0.07,0.07 0.07,0.14 0,0.06 -0.01,0.18 -0.12,0.23 -0.16,0.08 -0.35,0.02 -0.48,-0.09 -0.13,-0.12 -0.17,-0.31 -0.11,-0.48 0.09,-0.2 0.4,-0.2 0.58,-0.19zm-1.68 -0.29c0.01,-0.34 0.14,-0.63 0.44,-0.79 0.16,-0.09 0.41,-0.2 0.63,-0.23 0.22,-0.03 0.74,-0.01 1.06,0.14 0.24,0.11 0.41,0.28 0.62,0.41 0.21,0.12 0.37,0.21 0.57,0.35 0.31,0.21 0.49,0.45 0.71,0.6 0.1,0.07 0.25,0.06 0.39,0.1 -0.11,0.03 -0.25,0.06 -0.37,0.03 -0.14,-0.05 -0.34,-0.18 -0.46,-0.27 -0.19,-0.17 -0.3,-0.25 -0.51,-0.38 -0.13,-0.07 -0.34,-0.16 -0.48,-0.25 -0.14,-0.1 -0.39,-0.3 -0.53,-0.37 -0.17,-0.09 -0.48,-0.13 -0.67,-0.13 -0.27,0.01 -0.65,0.05 -0.86,0.24 -0.2,0.19 -0.28,0.35 -0.23,0.59 0.07,-0.09 0.12,-0.2 0.2,-0.27 0.16,-0.13 0.34,-0.14 0.54,-0.11 0.23,0.02 0.34,0.15 0.41,0.37 -0.05,-0.04 -0.14,-0.12 -0.21,-0.15 -0.17,-0.05 -0.3,-0.04 -0.46,0.05 -0.18,0.1 -0.13,0.25 -0.16,0.41 -0.01,0.08 -0.04,0.14 -0.06,0.21 -0.07,-0.02 -0.14,-0.05 -0.19,-0.1 0,0.07 -0.01,0.14 0.01,0.23 0.01,0.08 0.06,0.19 0.09,0.28 -0.13,-0.13 -0.27,-0.25 -0.35,-0.42 -0.09,-0.16 -0.14,-0.35 -0.13,-0.54zm0.22 -2.49c0.1,-0.14 0.12,-0.36 0.18,-0.54 -0.02,0.23 0.03,0.48 -0.08,0.64 -0.11,0.16 -0.31,0.13 -0.47,0.18 0.13,-0.1 0.27,-0.14 0.37,-0.28zm-2.29 3.33c0.12,-0.1 0.45,-0.02 0.7,0 -0.18,0.04 -0.36,0.09 -0.53,0.14 -0.02,0.06 -0.01,0.13 -0.05,0.18 -0.04,0.05 -0.12,0.07 -0.18,0.1 0,-0.16 -0.07,-0.32 0.06,-0.42zm1.75 -6.91c0.14,0.07 0.33,0.18 0.46,0.18 0.13,0.01 0.17,-0.08 0.25,-0.13 0.12,0.39 0.26,0.83 0.46,1.18 0.09,0.15 0.14,0.08 0.21,0.23 0.07,0.16 0.09,0.46 0.16,0.66 0.06,0.19 0.14,0.33 0.21,0.5 -0.18,-0.26 -0.42,-0.59 -0.52,-0.81 -0.1,-0.21 -0.03,-0.23 -0.12,-0.43 -0.08,-0.21 -0.24,-0.53 -0.37,-0.79 -0.09,0.01 -0.2,0.03 -0.27,0.01 -0.06,-0.02 -0.05,-0.09 -0.11,-0.14 -0.06,-0.05 -0.16,-0.03 -0.25,-0.1 -0.09,-0.08 -0.1,-0.23 -0.11,-0.36zm-0.8 1.94c0.14,-0.01 0.31,0.03 0.44,0.02 0.13,-0.01 0.23,-0.04 0.34,-0.06 -0.02,-0.2 0,-0.56 -0.18,-0.69 -0.12,-0.08 -0.6,-0.02 -0.73,0.01 -0.29,0.06 -0.63,0.23 -0.91,0.34 0.27,-0.19 0.5,-0.36 0.82,-0.46 0.2,-0.06 0.65,-0.13 0.85,-0.08 0.09,0.03 0.11,0.06 0.16,0.14 0.19,0.27 0.19,0.5 0.24,0.81 0.05,0.07 0.1,0.12 0.14,0.2 0.04,0.08 0.06,0.2 0.07,0.3 -0.05,-0.07 -0.02,-0.16 -0.15,-0.22 -0.14,-0.05 -0.35,0 -0.54,0.02 0.14,0.1 0.2,0.19 0.21,0.4 0.01,0.24 -0.2,0.42 -0.41,0.43 -0.3,0.03 -0.46,-0.04 -0.58,-0.29 -0.05,-0.12 -0.01,-0.25 -0.01,-0.36 -0.36,0.03 -0.36,0.01 -0.62,0.23 0.14,0.21 0.23,0.33 0.47,0.45 0.13,0.07 0.28,0.14 0.44,0.17 0.17,0.03 0.43,0.05 0.61,0.03 0.17,-0.03 0.26,-0.08 0.39,-0.19 0.13,-0.12 0.14,-0.29 0.19,-0.42 -0.01,0.13 -0.03,0.29 -0.07,0.38 -0.15,0.28 -0.4,0.37 -0.7,0.37 -0.28,0 -0.64,-0.07 -0.91,-0.18 -0.21,-0.09 -0.56,-0.34 -0.65,-0.55 -0.05,-0.15 -0.01,-0.33 -0.01,-0.5 0.29,-0.2 0.36,-0.15 0.71,-0.21 0.15,-0.02 0.25,-0.07 0.39,-0.09zm-1.72 -1.33c0.01,-0.11 0.02,-0.11 0.03,-0.17 -0.27,-0.07 -0.37,0.1 -0.53,0.43 -0.06,0.12 0,0.19 -0.07,0.27 -0.06,0.08 -0.16,0.07 -0.27,0.15 -0.1,0.07 -0.2,0.22 -0.3,0.3 -0.19,0.16 -0.46,0.26 -0.69,0.37 0.16,-0.11 0.46,-0.29 0.56,-0.46 0.05,-0.08 0.04,-0.25 0.13,-0.33 0.08,-0.08 0.1,-0.14 0.21,-0.16 0.1,-0.02 0.06,-0.14 0.09,-0.23 0.04,-0.1 0.11,-0.17 0.18,-0.26 0.07,-0.1 0.16,-0.25 0.3,-0.3 0.14,-0.05 0.36,0.01 0.47,-0.02 0.1,-0.03 0.04,-0.11 0.12,-0.16 0.08,-0.04 0.23,-0.02 0.33,-0.07 0.19,-0.09 0.27,-0.24 0.38,-0.4 0.02,0.34 0.02,0.59 -0.11,0.91 -0.13,0.36 -0.27,0.57 -0.66,0.79 -0.14,0.08 -0.27,0.1 -0.38,0.14 0.06,-0.09 0.15,-0.12 0.19,-0.26 0.04,-0.14 0.01,-0.42 0.02,-0.54zm6.3 1.66c-0.19,0.01 -0.23,-0.01 -0.38,0.09 0.08,0.13 0.16,0.25 0.24,0.38 0,-0.25 0.02,-0.3 0.14,-0.47zm-0.49 -0.18c0.26,-0.11 0.48,-0.2 0.76,-0.21 0.12,-0.01 0.29,0.01 0.4,0.01 0.1,-0.14 0.22,-0.25 0.27,-0.41 0.03,-0.11 0.01,-0.61 -0.04,-0.74 -0.15,-0.38 -0.3,-0.39 -0.51,-0.61 -0.16,-0.16 -0.16,-0.39 -0.21,-0.66 -0.02,-0.1 -0.07,-0.22 -0.09,-0.32 -0.28,-0.05 -0.57,-0.07 -0.89,-0.05 0.15,-0.15 0.3,-0.28 0.35,-0.51 0.04,-0.22 0.01,-0.49 -0.12,-0.69 -0.13,-0.2 -0.33,-0.37 -0.51,-0.53 -0.19,-0.17 -0.45,-0.3 -0.63,-0.43 0.23,-0.09 0.46,-0.21 0.68,-0.25 0.59,-0.11 1.09,0.06 1.65,0.4 0.33,0.2 0.6,0.39 0.94,0.74 0.34,0.36 0.76,1.02 1.1,1.4 0.32,0.39 0.59,0.7 0.88,0.93 0.29,0.23 0.55,0.3 0.82,0.45l0.43 0.45 0.35 -0.42 0.56 0.06 0.11 -0.63 0.51 -0.14 -0.08 -0.84 0.37 -0.26 -0.28 -0.53 0.28 -0.57 -0.36 -0.66 0.14 -0.63 -0.43 -0.36 -0.05 -0.67 -0.59 -0.22 -0.24 -0.59 -0.67 -0.01 -0.32 -0.43 -0.45 0.03 -0.5 -0.05 -0.28 -0.21 -0.41 0.27 -0.5 -0.26 -0.98 0.38 0.64 -0.56 0.67 -0.11 0.51 -0.13 0.69 0.23 0.6 -0.15 0.58 0.34 0.62 -0.03 0.31 0.54 0.61 0.07 0.34 0.61 0.38 0.21 0.11 0.78 0.34 0.32 -0.15 0.68 0.4 0.52 -0.38 0.55 0.41 0.34 -0.52 0.46 0.53 0.55 -0.64 0.21 0.42 0.59 -0.52 0.09 0.34 0.65 -0.59 -0.01 0.3 0.48 -0.65 -0.08 0.16 0.7 -0.49 -0.43 -0.17 0.85 -0.33 -0.61 -0.18 0.76 -0.42 -0.56 0.01 0.8 -0.45 -0.72c0.09,0.41 0.07,0.85 0.34,1.23 0.83,-0.11 1.36,-0.32 2,-0.92 0.57,-0.56 1.26,-1.71 1.44,-2.44 0.22,-0.84 0.22,-2.38 0.02,-3.23 -0.21,-0.82 -0.47,-1.21 -0.94,-1.88 -0.44,-0.47 -0.88,-0.97 -1.45,-1.31 -0.83,-0.5 -1.9,-0.63 -2.85,-0.62 -0.53,0.01 -0.88,0.11 -1.19,0.22 -0.55,0.2 -0.99,0.64 -1.55,0.85 -0.18,0.08 -0.33,0.08 -0.47,0 0.14,0.28 0.29,0.41 0.64,0.51 0.25,0.07 0.86,0.03 1.28,-0.01 0.44,-0.04 0.68,-0.18 1.28,-0.17 0.6,0.01 1.07,0.24 1.33,0.38 0.53,0.31 0.91,0.64 1.24,1.18 0.18,0.29 0.31,0.62 0.4,0.96 0.09,0.34 0.13,0.71 0.13,1.04 0.01,0.34 -0.02,0.63 -0.1,0.93 -0.19,0.69 -0.6,1.4 -1.46,1.29 -0.52,-0.06 -1.31,-1.05 -1.58,-1.41 -0.53,-0.73 -1.08,-1.53 -1.75,-2.14 -0.41,-0.37 -0.97,-0.62 -1.52,-0.68 -1.03,-0.09 -1.34,0.11 -2.12,0.75 0.16,0.05 0.32,0.08 0.48,0.15 0.36,0.16 0.69,0.37 0.97,0.64 0.3,0.28 0.44,0.46 0.45,0.86 0.01,0.27 -0.22,0.48 -0.42,0.68 -0.12,0.11 -0.28,0.22 -0.38,0.31 -0.14,0.12 -0.3,0.26 -0.13,0.45 0.06,0.08 0.17,0.13 0.26,0.2 0.15,0.11 0.08,0.51 -0.11,0.61 -0.25,0.14 -0.54,0.13 -0.74,-0.06 0.25,-0.04 0.41,-0.07 0.41,-0.28 -0.01,-0.12 -0.16,-0.22 -0.31,-0.29 -0.37,-0.16 -0.64,-0.14 -1,-0.4 -0.37,-0.27 -0.38,-0.41 -0.48,-0.82 -0.17,0.01 -0.34,0.02 -0.57,0.1 -0.24,0.08 -0.5,0.26 -0.71,0.31 -0.54,0.11 -0.65,0.08 -0.95,0 -0.52,-0.13 -1.19,0.1 -1.87,0.31 -0.11,0.04 -0.56,0.01 -0.87,0.11 -0.47,0.17 -1.13,0.57 -1.51,0.89 -0.58,0.48 -1.34,1.94 -1.76,3.61 -0.05,0.51 0.1,0.85 -0.22,1.1 -0.33,0.25 -0.32,0.88 -0.42,1.06 -0.11,0.18 -0.24,0.1 -0.47,0.35 -0.24,0.25 -0.35,0.21 -0.35,0.68 0.2,-0.13 0.5,-0.28 0.75,-0.29 0.23,-0.01 0.23,0.29 0.82,-0.29 0.31,-0.31 0.92,-0.32 1.33,-0.45 0.42,-0.14 1.17,-0.42 1.93,-1.27 0.75,-0.84 1.11,-1.72 1.26,-3.01 0.02,0.23 0.06,0.49 -0.04,1.11 -0.09,0.63 -0.3,1.34 0.14,2.18l0.27 0.53c-0.16,-0.23 -0.48,-0.59 -0.58,-0.85l-0.22 -0.6c-0.5,0.78 -0.61,0.92 -1.3,1.48 -0.03,0.34 -0.04,0.71 0.08,1.04 0.11,0.33 -0.07,0.71 0.02,0.93 0.08,0.22 0.28,0.1 0.35,0.32 0.06,0.22 -0.04,0.66 0.06,0.87 0.11,0.22 0.35,0.09 0.47,0.16 0.12,0.07 0.16,0.16 0.23,0.26 0.06,0.09 -0.03,0.3 0.1,0.38 0.13,0.07 0.34,0.01 0.47,0.07 0.14,0.07 0.16,0.23 0.13,0.38 -0.03,0.15 -0.18,0.21 -0.24,0.36 -0.07,0.15 -0.06,0.25 0.02,0.39 0.07,0.13 0.24,0.21 0.41,0.28 0.17,0.07 0.41,0.03 0.58,0.12 0.18,0.1 0.34,0.29 0.43,0.42 0.09,0.14 0.12,0.24 0.11,0.38 0,0.15 -0.06,0.31 -0.14,0.45 -0.08,0.14 -0.25,0.31 0.02,0.58 0.27,0.26 0.25,0.15 0.41,0.32 -0.02,-0.3 -0.14,-0.54 -0.05,-0.76 0.09,-0.23 0.36,-0.27 0.5,-0.37 0.14,-0.1 0.23,-0.24 0.34,-0.36 0,0.15 0.01,0.32 0,0.44 -0.04,0.23 -0.11,0.44 0.24,0.48 0.16,0.02 0.31,-0.09 0.48,-0.15 -0.09,0.16 -0.24,0.29 -0.26,0.47 -0.02,0.19 0,0.4 0.13,0.58 0.13,0.19 0.36,0.33 0.52,0.44 0.17,0.11 0.25,0.12 0.38,0.18 0.01,0.18 -0.03,0.38 -0.01,0.55 0.02,0.17 0.08,0.33 0.18,0.47 0.1,0.14 0.26,0.23 0.41,0.33 -0.08,-0.19 -0.25,-0.37 -0.25,-0.58 0,-0.2 0.07,-0.35 0.26,-0.53 0.2,-0.18 0.67,-0.34 0.89,-0.51 0.22,-0.18 0.29,-0.29 0.37,-0.46 0.08,-0.17 0.05,-0.44 0.07,-0.6 0.07,0.22 0.08,0.29 0.11,0.51 0.02,0.23 -0.14,0.54 -0.2,0.71 0.27,-0.13 0.44,-0.34 0.53,-0.55 0.06,0.04 0.03,0.13 0.05,0.32 0.1,-0.1 0.21,-0.17 0.3,-0.27 0.1,-0.09 0.21,-0.17 0.26,-0.29 0.04,-0.13 0.03,-0.27 -0.01,-0.41 -0.04,-0.15 -0.2,-0.32 -0.29,-0.48 -0.09,-0.16 0.02,-0.32 0.01,-0.52 -0.18,-0.03 -0.33,-0.12 -0.53,-0.09 -0.21,0.03 -0.44,0.26 -0.65,0.26 -0.21,0.01 -0.32,-0.19 -0.49,-0.24 -0.17,-0.06 -0.35,-0.05 -0.52,-0.07 0.22,-0.21 1.06,-0.31 1.64,-0.41 0.51,-0.08 1.01,-0.13 1.53,-0.13 0.23,-0.01 0.52,0.07 0.68,0.02 0.16,-0.04 0.13,-0.15 0.18,-0.27 0.13,-0.33 0.06,-0.63 -0.01,-0.96 -0.46,-0.06 -0.94,-0.12 -1.41,-0.09 -0.45,0.04 -0.99,0.26 -1.46,0.27 -0.41,0.01 -1.02,-0.08 -1.37,-0.29 -0.43,-0.26 -0.76,-0.82 -0.87,-1 -0.2,-0.3 -0.44,-0.87 -0.59,-1.14 -0.14,-0.26 -0.18,-0.33 -0.3,-0.44 -0.12,-0.11 -0.29,-0.12 -0.43,-0.18 0.17,0.02 0.35,-0.04 0.5,0.05 0.23,0.13 0.48,0.67 0.62,0.91 0.16,-0.5 0.12,-0.7 0.55,-0.99 -0.35,0.4 -0.35,0.69 -0.44,1.16 0.29,0.48 0.7,1.24 1.23,1.45 0.19,0.08 0.52,0.12 0.73,0.15 0.64,0.08 1.26,-0.12 1.89,-0.28 0.47,-0.12 0.94,-0.07 1.5,-0.04 0.19,0.01 0.64,-0.1 0.74,-0.29 0.05,-0.11 0.04,-0.23 -0.03,-0.34 -0.07,-0.11 -0.27,-0.17 -0.37,-0.27 -0.1,-0.1 -0.16,-0.22 -0.24,-0.33 -0.43,0.08 -0.79,0.12 -1.11,0.13 0.23,-0.1 0.45,-0.15 0.69,-0.25 0.24,-0.09 0.51,-0.24 0.7,-0.37 0.19,-0.13 0.32,-0.2 0.45,-0.35 0.14,-0.14 0.32,-0.3 0.43,-0.48 0.1,-0.18 0.11,-0.38 0.12,-0.6 0.01,-0.23 0,-0.54 -0.09,-0.72 -0.09,-0.18 -0.25,-0.24 -0.39,-0.28 -0.13,-0.04 -0.22,0.07 -0.36,0.08 -0.14,0.02 -0.27,0.1 -0.47,0.01 -0.2,-0.1 -0.44,-0.29 -0.64,-0.57 -0.2,-0.29 -0.35,-0.75 -0.56,-1.11 -0.35,-0.62 -0.8,-1.2 -1.22,-1.77 -0.04,-0.14 -0.09,-0.34 -0.11,-0.53 -0.03,-0.33 -0.03,-0.68 0.07,-1.01 0.08,-0.25 0.2,-0.51 0.46,-0.61 0.1,-0.04 0.23,-0.06 0.33,-0.03 0.09,0.04 0.18,0.14 0.14,0.27 -0.04,0.13 -0.13,0.13 -0.19,0.2 -0.11,0.12 -0.15,0.2 -0.19,0.34 0.11,0 0.27,-0.01 0.37,0.02 0.12,0.03 0.23,0.11 0.3,0.29 -0.15,-0.13 -0.22,-0.19 -0.41,-0.2 -0.08,0 -0.19,0.03 -0.28,0.04 -0.03,0.12 -0.05,0.26 -0.1,0.35 -0.05,0.08 -0.15,0.06 -0.19,0.17 -0.03,0.1 -0.03,0.27 -0.02,0.4zm1.3 -0.15c0.05,0.02 0.07,0.02 0.15,0.08 0.07,0.05 0.17,0.11 0.22,0.24 0.06,0.13 0.06,0.33 0.05,0.41 -0.05,-0.01 -0.12,0 -0.17,-0.05 -0.05,-0.04 -0.09,-0.14 -0.15,-0.18 -0.07,-0.05 -0.12,-0.04 -0.2,-0.05 0.04,0.11 0.06,0.22 0.04,0.32 -0.04,0.21 -0.16,0.32 -0.36,0.34 -0.09,0.01 -0.23,-0.02 -0.31,-0.03 0.04,0.08 0.1,0.15 0.13,0.23 0.17,-0.03 0.3,-0.02 0.39,-0.07 0.09,-0.04 0.19,-0.14 0.31,-0.18 0.12,-0.04 0.22,-0.04 0.35,-0.06 -0.1,0.09 -0.17,0.18 -0.27,0.26 0.08,0.22 0.15,0.44 0.23,0.65 0.15,0.1 0.3,0.15 0.5,0.28 0.2,0.12 0.44,0.33 0.7,0.45 0.25,0.12 0.41,0.19 0.68,0.24 0.27,0.05 0.48,0.27 0.75,0.3 0.27,0.04 0.76,0.05 0.97,0.03 0.23,-0.03 0.53,-0.15 0.56,-0.4 -0.19,0.05 -0.49,0 -0.64,-0.36 -0.07,-0.17 -0.04,-0.47 -0.14,-0.66 -0.1,-0.19 -0.24,-0.25 -0.41,-0.49 -0.17,-0.24 -0.45,-0.61 -0.61,-0.93 -0.16,-0.32 -0.19,-0.68 -0.32,-0.97 -0.14,-0.28 -0.34,-0.51 -0.49,-0.73 -0.34,-0.48 -0.61,-0.81 -1.17,-1.05 -0.26,-0.12 -0.57,-0.15 -0.85,-0.23 -0.12,0.06 -0.28,0.11 -0.31,0.25 -0.03,0.14 0.03,0.34 0.13,0.44 0.16,0.17 0.41,0.35 0.5,0.63 0.06,0.17 0.08,0.75 0.03,0.91 -0.06,0.17 -0.19,0.27 -0.29,0.38zm0.05 1.38c-0.05,0.04 -0.09,0.09 -0.17,0.13 -0.09,0.03 -0.2,0.04 -0.31,0.07 0.15,0.24 0.32,0.48 0.46,0.74 0.15,0.25 0.28,0.53 0.42,0.79 0,-0.15 0,-0.31 -0.02,-0.45 -0.02,-0.15 -0.08,-0.27 -0.15,-0.48 -0.06,-0.21 -0.14,-0.51 -0.23,-0.8zm-4.16 -5.29c-0.02,0.24 0.02,0.61 0.07,0.84 0.06,0.28 0.12,0.42 0.34,0.59 0.41,0.3 0.68,0.25 0.99,0.43 0.15,0.08 0.35,0.23 0.4,0.37 0.06,0.15 -0.04,0.32 -0.15,0.38 0.2,0.03 0.42,-0.19 0.33,-0.43 -0.05,-0.11 -0.26,-0.16 -0.33,-0.28 -0.07,-0.11 -0.07,-0.23 -0.04,-0.35 0.06,-0.21 0.48,-0.4 0.62,-0.56 0.23,-0.26 0.32,-0.47 0.19,-0.8 -0.18,-0.47 -0.88,-0.84 -1.29,-1.02 -0.19,-0.08 -0.3,-0.09 -0.45,-0.13 0.3,0.17 0.63,0.32 0.78,0.72 0.13,0.33 0.02,0.45 0.02,0.74 0,0.14 0.18,0.21 0.26,0.29 0.07,0.07 0.06,0.13 0.01,0.23 -0.01,-0.09 -0.05,-0.16 -0.12,-0.21 -0.12,-0.08 -0.24,-0.06 -0.3,-0.23 -0.1,-0.26 0.09,-0.5 -0.12,-0.79 -0.16,-0.22 -0.37,-0.46 -0.65,-0.47 -0.13,0 -0.23,0.02 -0.38,0.06l-0.19 -0.23 0 0c-0.39,-0.35 -0.65,-0.65 -1.19,-0.89 -0.55,-0.24 -0.81,-0.28 -1.44,-0.26 -0.62,0.01 -1.23,0.06 -1.95,0.68 -0.72,0.63 -2.58,3 -3.03,3.3 -0.45,0.31 -0.55,0.41 -1.11,0.41 -0.57,0 -1.44,-0.8 -1.48,-1.79 -0.03,-1 -0.05,-1.35 0.65,-2.55 0.69,-1.2 1.94,-1.56 2.87,-1.69 0.93,-0.12 1.48,0.21 2.17,0.21 0.69,0 1.37,-0.12 1.57,-0.67 -0.1,0.06 -0.23,0.13 -0.6,0.11 -0.37,-0.02 -0.88,-0.45 -1.46,-0.74 -0.57,-0.28 -1.21,-0.32 -2.04,-0.33 -0.82,-0.02 -1.84,0.05 -2.86,0.6 -1.02,0.54 -1.71,1.13 -2.3,2.2 -0.59,1.07 -0.68,1.95 -0.58,3.25 0.09,1.3 0.49,2.27 1.26,3.22 0.78,0.95 1.55,1.42 2.94,1.59l0.29 -1.29 -0.52 0.75 0.01 -0.84 -0.47 0.59 -0.21 -0.79 -0.38 0.63 -0.19 -0.88 -0.56 0.44 0.18 -0.73 -0.73 0.08 0.33 -0.51 -0.67 0.01 0.39 -0.68 -0.59 -0.09 0.47 -0.62 -0.73 -0.22 0.61 -0.58 -0.6 -0.48 0.47 -0.36 -0.44 -0.58 0.47 -0.54 -0.18 -0.72 0.4 -0.34 0.11 -0.82 0.45 -0.22 0.38 -0.63 0.7 -0.08 0.35 -0.57 0.7 0.03 0.67 -0.36 0.69 0.16 0.79 -0.23 0.58 0.13 0.76 0.11 0.74 0.59 -1.13 -0.39 -0.56 0.27 -0.47 -0.29 -0.32 0.22 -0.57 0.06 -0.52 -0.03 -0.37 0.45 -0.76 0.01 -0.27 0.61 -0.68 0.24 -0.06 0.7 -0.48 0.38 0.16 0.67 -0.42 0.69 0.32 0.6 -0.32 0.55 0.42 0.27 -0.09 0.89 0.58 0.15 0.13 0.66 0.64 -0.07 0.4 0.45 0.49 -0.48c0.89,-0.44 1.26,-0.69 1.95,-1.44 0.79,-0.86 1.25,-1.65 2.3,-2.24 0.76,-0.42 1.37,-0.57 2.22,-0.42 0.8,0.14 1.07,0.62 1.65,1.12 0.06,-0.11 0.08,-0.14 0.18,-0.23 -0.03,0.15 -0.08,0.3 -0.1,0.44z"/>
    </g>
    <path class="fil7" d="M49.39 16.57l0 -2 5.14 0 0 4.72c-0.5,0.49 -1.22,0.91 -2.17,1.29 -0.95,0.37 -1.91,0.55 -2.89,0.55 -1.24,0 -2.31,-0.26 -3.23,-0.78 -0.92,-0.52 -1.61,-1.27 -2.08,-2.24 -0.46,-0.96 -0.69,-2.02 -0.69,-3.16 0,-1.23 0.26,-2.33 0.77,-3.29 0.52,-0.96 1.28,-1.7 2.27,-2.21 0.76,-0.39 1.71,-0.59 2.84,-0.59 1.46,0 2.61,0.31 3.44,0.93 0.82,0.62 1.36,1.47 1.59,2.56l-2.38 0.45c-0.16,-0.58 -0.48,-1.05 -0.94,-1.38 -0.45,-0.34 -1.03,-0.51 -1.72,-0.51 -1.04,0 -1.87,0.33 -2.48,1 -0.62,0.66 -0.93,1.64 -0.93,2.95 0,1.41 0.32,2.46 0.94,3.16 0.62,0.71 1.44,1.06 2.45,1.06 0.5,0 1,-0.1 1.5,-0.3 0.51,-0.19 0.94,-0.43 1.3,-0.71l0 -1.5 -2.73 0zm11.95 4.35l0 -11.84 3.83 0c1.46,0 2.4,0.05 2.84,0.17 0.68,0.18 1.25,0.57 1.71,1.16 0.45,0.6 0.68,1.37 0.68,2.31 0,0.73 -0.13,1.34 -0.39,1.83 -0.27,0.5 -0.6,0.89 -1.01,1.17 -0.4,0.28 -0.81,0.47 -1.23,0.56 -0.57,0.11 -1.4,0.17 -2.48,0.17l-1.55 0 0 4.47 -2.4 0zm2.4 -9.84l0 3.37 1.3 0c0.94,0 1.57,-0.06 1.88,-0.19 0.32,-0.12 0.57,-0.31 0.75,-0.58 0.18,-0.27 0.27,-0.57 0.27,-0.93 0,-0.43 -0.13,-0.78 -0.38,-1.06 -0.25,-0.29 -0.57,-0.46 -0.96,-0.53 -0.28,-0.06 -0.85,-0.08 -1.71,-0.08l-1.15 0zm12.99 9.84l0 -11.75 2.4 0 0 9.74 5.94 0 0 2.01 -8.34 0z"/>
   </g>
  </g>
 </g>
</svg>
