<?xml version="1.0" encoding="UTF-8"?>
<!DOCTYPE svg PUBLIC "-//W3C//DTD SVG 1.1//EN" "http://www.w3.org/Graphics/SVG/1.1/DTD/svg11.dtd">
<!-- Creator: CorelDRAW 2021.5 -->
<svg xmlns="http://www.w3.org/2000/svg" xml:space="preserve" width="120px" height="42px" version="1.1" style="shape-rendering:geometricPrecision; text-rendering:geometricPrecision; image-rendering:optimizeQuality; fill-rule:evenodd; clip-rule:evenodd"
viewBox="0 0 120 42"
 xmlns:xlink="http://www.w3.org/1999/xlink"
 xmlns:xodm="http://www.corel.com/coreldraw/odm/2003">
 <defs>
  <style type="text/css">
   <![CDATA[
    .fil6 {fill:none}
    .fil2 {fill:#1C511C}
    .fil3 {fill:#3CA536}
    .fil4 {fill:#FEFEFE;fill-rule:nonzero}
    .fil8 {fill:black;fill-rule:nonzero}
    .fil1 {fill:#1C511C;fill-rule:nonzero}
    .fil7 {fill:#777BB3;fill-rule:nonzero}
    .fil0 {fill:#EDEDED;fill-rule:nonzero}
    .fil9 {fill:white;fill-rule:nonzero}
    .fil5 {fill:url(#id3);fill-rule:nonzero}
   ]]>
  </style>
      <clipPath id="id0">
       <path d="M57.32 15.24c0,5.92 9.13,10.72 20.39,10.72l0 0c11.25,0 20.38,-4.8 20.38,-10.72l0 0c0,-5.92 -9.13,-10.72 -20.38,-10.72l0 0c-11.26,0 -20.39,4.8 -20.39,10.72z"/>
      </clipPath>
      <clipPath id="id1">
       <path d="M56.47 3.3l42.47 0 0 23.88 -42.47 0 0 -23.88z"/>
      </clipPath>
      <clipPath id="id2">
       <path d="M56.47 3.3l42.47 0 0 23.88 -42.47 0 0 -23.88z"/>
      </clipPath>
  <radialGradient id="id3" gradientUnits="userSpaceOnUse" gradientTransform="matrix(1.56312 -0 -0 -1.56314 -21 -16)" cx="36.94" cy="-6.2" r="907.22" fx="36.94" fy="-6.2">
   <stop offset="0" style="stop-opacity:1; stop-color:#AEB2D5"/>
   <stop offset="0.301961" style="stop-opacity:1; stop-color:#AEB2D5"/>
   <stop offset="0.74902" style="stop-opacity:1; stop-color:#484C89"/>
   <stop offset="1" style="stop-opacity:1; stop-color:#484C89"/>
  </radialGradient>
 </defs>
 <g id="Layer_x0020_1">
  <metadata id="CorelCorpID_0Corel-Layer"/>
  <path id="path3817_5_" class="fil0" d="M3.41 0.45l113.35 0.2c1.59,0 3,-0.23 3,3.16l-0.14 37.33 -119.07 0 0 -37.47c0,-1.67 0.16,-3.22 2.86,-3.22z" nodetypes="ccccccc"/>
  <path id="path120" class="fil1" d="M117.75 0l-115.5 0c-1.24,0 -2.25,1.01 -2.25,2.25l0 39.24c0,0.28 0.23,0.51 0.51,0.51l118.98 0c0.28,0 0.51,-0.23 0.51,-0.51l0 -39.24c0,-1.24 -1.01,-2.25 -2.25,-2.25zm-115.5 1.01l115.5 0c0.68,0 1.24,0.56 1.24,1.24 0,0 0,15.79 0,27.22l-82.56 0c-3.03,5.47 -8.86,9.18 -15.55,9.18 -6.69,0 -12.52,-3.71 -15.55,-9.18l-4.32 0c0,-11.43 0,-27.22 0,-27.22 0,-0.68 0.56,-1.24 1.24,-1.24z"/>
  <g id="_2032716387680">
   <path class="fil2" d="M15.02 34.43c-2.2,-0.34 -5.09,-2.8 -6.45,-4.51 -3.04,-3.85 -4.29,-8.77 -3.21,-13.58 1.66,-7.34 8.09,-12.42 15.64,-12.37 7.44,0.05 13.9,5.29 15.45,12.57 0.81,3.78 0.12,8.13 -1.87,11.46 -0.88,1.47 -1.88,2.73 -3.18,3.85 -1.16,1.01 -3.1,2.31 -4.62,2.6l-0.94 0.19 -3.93 -10.18 1.11 -0.4c2.01,-0.71 2.76,-3.34 2.28,-5.25 -0.52,-2.04 -2.36,-3.48 -4.48,-3.44 -3.65,0.09 -5.47,3.84 -3.91,6.98 0.69,1.39 1.17,1.23 2.22,2.05l0.67 0.53 -3.89 9.64 -0.89 -0.14z"/>
   <path class="fil3" d="M15.19 33.3l3.23 -8c-0.66,-0.52 -1.68,-0.7 -2.54,-2.45 -1.88,-3.8 0.31,-8.52 4.92,-8.62 2.88,-0.06 5.02,1.98 5.61,4.3 0.63,2.54 -0.46,5.7 -3.01,6.61l3.16 8.19c1.41,-0.27 3.29,-1.64 4.09,-2.34 1.15,-0.99 2.06,-2.09 2.95,-3.58 1.67,-2.8 2.55,-6.83 1.74,-10.63 -1.34,-6.27 -6.95,-11.62 -14.35,-11.67 -7.55,-0.05 -13.1,5.2 -14.51,11.48 -1.06,4.7 0.31,9.23 2.99,12.62 1.15,1.45 3.84,3.8 5.72,4.09z"/>
  </g>
  <path class="fil4" d="M48.18 38.04l0 -6.12 1.25 0 0 5.08 3.09 0 0 1.04 -4.34 0zm7.42 0l0 -6.17 1.25 0 0 6.17 -1.25 0zm8.78 -2.28l1.2 0.37c-0.18,0.68 -0.49,1.19 -0.92,1.52 -0.43,0.33 -0.98,0.49 -1.64,0.49 -0.82,0 -1.49,-0.28 -2.02,-0.84 -0.53,-0.56 -0.79,-1.32 -0.79,-2.3 0,-1.02 0.26,-1.82 0.79,-2.39 0.53,-0.57 1.23,-0.85 2.09,-0.85 0.76,0 1.37,0.22 1.84,0.67 0.28,0.26 0.49,0.64 0.63,1.14l-1.23 0.29c-0.07,-0.32 -0.22,-0.57 -0.45,-0.76 -0.24,-0.18 -0.52,-0.27 -0.85,-0.27 -0.46,0 -0.83,0.16 -1.11,0.49 -0.29,0.33 -0.43,0.86 -0.43,1.59 0,0.78 0.14,1.34 0.42,1.67 0.28,0.33 0.65,0.49 1.1,0.49 0.33,0 0.61,-0.1 0.85,-0.31 0.24,-0.21 0.41,-0.54 0.52,-1zm4.66 2.28l0 -6.17 4.57 0 0 1.04 -3.32 0 0 1.37 3.09 0 0 1.04 -3.09 0 0 1.68 3.44 0 0 1.04 -4.69 0zm8.14 0l0 -6.17 1.21 0 2.54 4.13 0 -4.13 1.15 0 0 6.17 -1.24 0 -2.5 -4.06 0 4.06 -1.16 0zm8.29 -2l1.22 -0.12c0.07,0.4 0.21,0.7 0.44,0.89 0.22,0.19 0.52,0.29 0.9,0.29 0.4,0 0.7,-0.09 0.9,-0.26 0.2,-0.16 0.3,-0.36 0.3,-0.59 0,-0.15 -0.04,-0.27 -0.12,-0.37 -0.09,-0.1 -0.24,-0.19 -0.45,-0.27 -0.15,-0.05 -0.47,-0.14 -0.99,-0.27 -0.67,-0.16 -1.13,-0.37 -1.4,-0.61 -0.38,-0.34 -0.57,-0.76 -0.57,-1.25 0,-0.31 0.09,-0.61 0.27,-0.88 0.18,-0.27 0.43,-0.48 0.77,-0.63 0.33,-0.14 0.73,-0.21 1.21,-0.21 0.77,0 1.35,0.17 1.74,0.51 0.39,0.34 0.59,0.8 0.61,1.37l-1.25 0.05c-0.05,-0.32 -0.16,-0.55 -0.34,-0.69 -0.17,-0.14 -0.43,-0.21 -0.78,-0.21 -0.36,0 -0.64,0.08 -0.84,0.22 -0.13,0.1 -0.2,0.23 -0.2,0.39 0,0.15 0.06,0.27 0.19,0.37 0.15,0.14 0.53,0.28 1.14,0.42 0.6,0.14 1.05,0.29 1.34,0.44 0.29,0.16 0.52,0.37 0.68,0.63 0.16,0.27 0.24,0.59 0.24,0.98 0,0.36 -0.09,0.69 -0.29,1 -0.2,0.31 -0.47,0.53 -0.83,0.68 -0.36,0.15 -0.81,0.23 -1.35,0.23 -0.78,0 -1.37,-0.18 -1.79,-0.54 -0.42,-0.36 -0.67,-0.88 -0.75,-1.57zm8.47 2l0 -6.17 4.56 0 0 1.04 -3.31 0 0 1.37 3.08 0 0 1.04 -3.08 0 0 1.68 3.43 0 0 1.04 -4.68 0zm8.14 -6.17l2.27 0c0.51,0 0.9,0.04 1.17,0.12 0.36,0.1 0.67,0.29 0.93,0.57 0.25,0.27 0.45,0.6 0.58,0.99 0.14,0.4 0.21,0.89 0.21,1.46 0,0.51 -0.07,0.95 -0.19,1.31 -0.16,0.45 -0.38,0.82 -0.66,1.09 -0.22,0.22 -0.51,0.38 -0.88,0.5 -0.27,0.08 -0.64,0.13 -1.1,0.13l-2.33 0 0 -6.17zm1.24 1.04l0 4.09 0.93 0c0.35,0 0.6,-0.02 0.75,-0.06 0.2,-0.05 0.37,-0.14 0.5,-0.26 0.13,-0.12 0.24,-0.32 0.33,-0.6 0.08,-0.27 0.12,-0.65 0.12,-1.12 0,-0.48 -0.04,-0.85 -0.12,-1.1 -0.09,-0.26 -0.21,-0.46 -0.36,-0.6 -0.15,-0.14 -0.34,-0.24 -0.57,-0.29 -0.17,-0.04 -0.51,-0.06 -1.02,-0.06l-0.56 0z"/>
  <g id="_2032716376640">
   <g id="g3438">
    <g id="g3440">
     <g>
     </g>
     <g style="clip-path:url(#id0)">
      <g>
       <path id="path3462" class="fil5" d="M57.32 15.24c0,5.92 9.13,10.72 20.39,10.72l0 0c11.25,0 20.38,-4.8 20.38,-10.72l0 0c0,-5.92 -9.13,-10.72 -20.38,-10.72l0 0c-11.26,0 -20.39,4.8 -20.39,10.72z"/>
      </g>
     </g>
     <path class="fil6" d="M57.32 15.24c0,5.92 9.13,10.72 20.39,10.72l0 0c11.25,0 20.38,-4.8 20.38,-10.72l0 0c0,-5.92 -9.13,-10.72 -20.38,-10.72l0 0c-11.26,0 -20.39,4.8 -20.39,10.72z"/>
    </g>
    <g id="g3464">
     <g>
     </g>
     <g style="clip-path:url(#id1)">
      <g>
       <path id="path3474" class="fil7" d="M77.71 25.17c10.81,0 19.58,-4.45 19.58,-9.93 0,-5.48 -8.77,-9.92 -19.58,-9.92 -10.82,0 -19.59,4.44 -19.59,9.92 0,5.48 8.77,9.93 19.59,9.93z"/>
      </g>
     </g>
     <polygon class="fil6" points="56.47,3.3 98.94,3.3 98.94,27.18 56.47,27.18 "/>
    </g>
    <g id="g3476">
     <g>
     </g>
     <g style="clip-path:url(#id2)">
      <g>
       <path id="path3486" class="fil8" d="M68.4 16.47c0.89,0 1.55,-0.16 1.97,-0.49 0.42,-0.32 0.7,-0.87 0.86,-1.64 0.13,-0.73 0.08,-1.23 -0.16,-1.5 -0.26,-0.28 -0.8,-0.42 -1.62,-0.42l-1.42 0 -0.79 4.05 1.16 0zm-4.65 5c-0.07,0 -0.13,-0.03 -0.17,-0.08 -0.04,-0.06 -0.06,-0.12 -0.05,-0.19l2.09 -10.74c0.02,-0.11 0.11,-0.18 0.22,-0.18l4.5 0c1.41,0 2.47,0.38 3.13,1.14 0.66,0.76 0.87,1.83 0.61,3.16 -0.11,0.55 -0.29,1.06 -0.54,1.51 -0.26,0.45 -0.59,0.87 -1,1.25 -0.49,0.45 -1.04,0.79 -1.64,0.98 -0.59,0.19 -1.35,0.29 -2.25,0.29l-1.82 0 -0.52 2.68c-0.02,0.1 -0.11,0.18 -0.22,0.18l-2.34 0 0 0z"/>
       <g>
        <path id="path3490" class="fil9" d="M68.21 12.64l1.24 0c0.99,0 1.33,0.22 1.45,0.34 0.2,0.22 0.23,0.67 0.11,1.31 -0.14,0.72 -0.4,1.23 -0.77,1.52 -0.38,0.29 -1,0.44 -1.84,0.44l-0.89 0 0.7 -3.61zm2.13 -2.58l-4.5 0c-0.21,0 -0.4,0.15 -0.44,0.36l-2.09 10.74c-0.02,0.13 0.01,0.26 0.1,0.37 0.08,0.1 0.21,0.16 0.34,0.16l2.34 0c0.21,0 0.39,-0.15 0.43,-0.36l0.49 -2.5 1.64 0c0.93,0 1.71,-0.1 2.32,-0.3 0.63,-0.2 1.21,-0.55 1.72,-1.03 0.43,-0.39 0.78,-0.83 1.04,-1.3 0.27,-0.48 0.46,-1 0.57,-1.57 0.27,-1.41 0.05,-2.54 -0.67,-3.35 -0.7,-0.81 -1.81,-1.22 -3.29,-1.22l0 0zm-3.37 6.63l1.43 0c0.94,0 1.64,-0.18 2.11,-0.53 0.46,-0.36 0.77,-0.95 0.93,-1.78 0.16,-0.8 0.09,-1.36 -0.21,-1.69 -0.3,-0.33 -0.89,-0.49 -1.78,-0.49l-1.6 0 -0.88 4.49 0 0zm3.37 -6.19c1.35,0 2.34,0.36 2.96,1.07 0.62,0.71 0.81,1.7 0.56,2.97 -0.1,0.53 -0.27,1.01 -0.52,1.44 -0.24,0.44 -0.56,0.83 -0.95,1.19 -0.47,0.44 -0.99,0.75 -1.56,0.94 -0.57,0.19 -1.3,0.28 -2.18,0.28l-2 0 -0.56 2.85 -2.34 0 2.09 -10.74 4.5 0z"/>
       </g>
       <path id="path3494" class="fil8" d="M79.45 18.61c-0.07,0 -0.13,-0.03 -0.18,-0.08 -0.04,-0.05 -0.05,-0.12 -0.04,-0.18l0.92 -4.76c0.09,-0.45 0.07,-0.77 -0.06,-0.91 -0.08,-0.09 -0.31,-0.23 -1,-0.23l-1.68 0 -1.16 5.98c-0.02,0.1 -0.11,0.18 -0.21,0.18l-2.33 0c-0.06,0 -0.12,-0.03 -0.17,-0.08 -0.04,-0.05 -0.06,-0.12 -0.04,-0.18l2.08 -10.75c0.03,-0.1 0.12,-0.18 0.22,-0.18l2.32 0c0.07,0 0.13,0.03 0.17,0.08 0.05,0.05 0.06,0.12 0.05,0.19l-0.5 2.59 1.8 0c1.37,0 2.3,0.24 2.84,0.74 0.55,0.51 0.73,1.32 0.51,2.41l-0.97 5c-0.02,0.1 -0.11,0.18 -0.22,0.18l-2.35 0z"/>
       <g>
        <path id="path3498" class="fil9" d="M78.12 7.2l-2.32 0c-0.21,0 -0.39,0.15 -0.43,0.36l-2.09 10.74c-0.03,0.13 0.01,0.27 0.09,0.37 0.09,0.1 0.21,0.16 0.34,0.16l2.33 0c0.21,0 0.39,-0.15 0.43,-0.36l1.13 -5.8 1.49 0c0.69,0 0.83,0.15 0.84,0.16 0.04,0.04 0.1,0.25 0.01,0.72l-0.93 4.75c-0.02,0.13 0.01,0.27 0.09,0.37 0.09,0.1 0.21,0.16 0.34,0.16l2.36 0c0.22,0 0.4,-0.15 0.44,-0.36l0.97 -5c0.23,-1.17 0.03,-2.05 -0.58,-2.61 -0.58,-0.54 -1.56,-0.8 -2.99,-0.8l-1.53 0 0.45 -2.33c0.02,-0.13 -0.01,-0.27 -0.09,-0.37 -0.09,-0.1 -0.21,-0.16 -0.35,-0.16l0 0zm0 0.44l-0.55 2.86 2.07 0c1.3,0 2.2,0.23 2.69,0.68 0.5,0.46 0.64,1.19 0.45,2.21l-0.98 5 -2.35 0 0.92 -4.76c0.1,-0.54 0.07,-0.91 -0.12,-1.1 -0.18,-0.2 -0.57,-0.3 -1.16,-0.3l-1.86 0 -1.19 6.16 -2.33 0 2.09 -10.75 2.32 0z"/>
       </g>
       <path id="path3502" class="fil8" d="M86.67 16.47c0.89,0 1.55,-0.16 1.97,-0.49 0.42,-0.32 0.7,-0.87 0.86,-1.64 0.14,-0.73 0.08,-1.23 -0.16,-1.5 -0.25,-0.28 -0.8,-0.42 -1.62,-0.42l-1.42 0 -0.79 4.05 1.16 0zm-4.65 5c-0.07,0 -0.13,-0.03 -0.17,-0.08 -0.04,-0.06 -0.06,-0.12 -0.05,-0.19l2.09 -10.74c0.02,-0.11 0.11,-0.18 0.22,-0.18l4.5 0c1.41,0 2.47,0.38 3.13,1.14 0.66,0.76 0.87,1.83 0.61,3.16 -0.11,0.55 -0.29,1.06 -0.54,1.51 -0.26,0.45 -0.59,0.87 -1,1.25 -0.49,0.45 -1.04,0.79 -1.64,0.98 -0.59,0.19 -1.35,0.29 -2.25,0.29l-1.82 0 -0.52 2.68c-0.02,0.1 -0.11,0.18 -0.22,0.18l-2.34 0 0 0z"/>
       <g>
        <path id="path3506" class="fil9" d="M86.48 12.64l1.24 0c0.99,0 1.34,0.22 1.45,0.34 0.2,0.22 0.23,0.67 0.11,1.31 -0.14,0.72 -0.4,1.23 -0.77,1.52 -0.38,0.29 -1,0.44 -1.84,0.44l-0.89 0 0.7 -3.61zm2.13 -2.58l-4.5 0c-0.21,0 -0.4,0.15 -0.44,0.36l-2.08 10.74c-0.03,0.13 0,0.26 0.09,0.37 0.08,0.1 0.21,0.16 0.34,0.16l2.34 0c0.21,0 0.39,-0.15 0.43,-0.36l0.49 -2.5 1.64 0c0.93,0 1.71,-0.1 2.32,-0.3 0.63,-0.2 1.21,-0.55 1.72,-1.03 0.43,-0.39 0.78,-0.83 1.04,-1.3 0.26,-0.48 0.45,-1 0.57,-1.57 0.27,-1.41 0.05,-2.54 -0.67,-3.35 -0.7,-0.81 -1.81,-1.22 -3.29,-1.22l0 0zm-3.37 6.63l1.43 0c0.94,0 1.65,-0.18 2.11,-0.53 0.46,-0.36 0.77,-0.95 0.93,-1.78 0.16,-0.8 0.09,-1.36 -0.21,-1.69 -0.3,-0.33 -0.89,-0.49 -1.78,-0.49l-1.6 0 -0.88 4.49 0 0zm3.37 -6.19c1.35,0 2.34,0.36 2.96,1.07 0.62,0.71 0.81,1.7 0.56,2.97 -0.1,0.53 -0.27,1.01 -0.52,1.44 -0.24,0.44 -0.56,0.83 -0.95,1.19 -0.47,0.44 -0.99,0.75 -1.56,0.94 -0.57,0.19 -1.3,0.28 -2.18,0.28l-2.01 0 -0.55 2.85 -2.34 0 2.09 -10.74 4.5 0 0 0zm0 0l0 0 0 0z"/>
       </g>
      </g>
     </g>
     <polygon class="fil6" points="56.47,3.3 98.94,3.3 98.94,27.18 56.47,27.18 "/>
    </g>
   </g>
  </g>
 </g>
</svg>
