<?xml version="1.0" encoding="UTF-8"?>
<!DOCTYPE svg PUBLIC "-//W3C//DTD SVG 1.1//EN" "http://www.w3.org/Graphics/SVG/1.1/DTD/svg11.dtd">
<!-- Creator: CorelDRAW 2021.5 -->
<svg xmlns="http://www.w3.org/2000/svg" xml:space="preserve" width="120px" height="42px" version="1.1" style="shape-rendering:geometricPrecision; text-rendering:geometricPrecision; image-rendering:optimizeQuality; fill-rule:evenodd; clip-rule:evenodd"
viewBox="0 0 120 42"
 xmlns:xlink="http://www.w3.org/1999/xlink"
 xmlns:xodm="http://www.corel.com/coreldraw/odm/2003">
 <defs>
  <style type="text/css">
   <![CDATA[
    .fil6 {fill:#4B4B4D}
    .fil2 {fill:#1C511C}
    .fil3 {fill:#3CA536}
    .fil4 {fill:#FEFEFE;fill-rule:nonzero}
    .fil5 {fill:#4B4B4D;fill-rule:nonzero}
    .fil1 {fill:#1C511C;fill-rule:nonzero}
    .fil0 {fill:#EDEDED;fill-rule:nonzero}
   ]]>
  </style>
 </defs>
 <g id="Layer_x0020_1">
  <metadata id="CorelCorpID_0Corel-Layer"/>
  <path id="path3817_5_" class="fil0" d="M3.41 0.45l113.35 0.2c1.59,0 3,-0.23 3,3.16l-0.14 37.33 -119.07 0 0 -37.47c0,-1.67 0.16,-3.22 2.86,-3.22z" nodetypes="ccccccc"/>
  <path id="path120" class="fil1" d="M117.75 0l-115.5 0c-1.24,0 -2.25,1.01 -2.25,2.25l0 39.24c0,0.28 0.23,0.51 0.51,0.51l118.98 0c0.28,0 0.51,-0.23 0.51,-0.51l0 -39.24c0,-1.24 -1.01,-2.25 -2.25,-2.25zm-115.5 1.01l115.5 0c0.68,0 1.24,0.56 1.24,1.24 0,0 0,15.79 0,27.22l-82.56 0c-3.03,5.47 -8.86,9.18 -15.55,9.18 -6.69,0 -12.52,-3.71 -15.55,-9.18l-4.32 0c0,-11.43 0,-27.22 0,-27.22 0,-0.68 0.56,-1.24 1.24,-1.24z"/>
  <g id="_2032463948400">
   <path class="fil2" d="M15.02 34.43c-2.2,-0.34 -5.09,-2.8 -6.45,-4.51 -3.04,-3.85 -4.29,-8.77 -3.21,-13.58 1.66,-7.34 8.09,-12.42 15.64,-12.37 7.44,0.05 13.9,5.29 15.45,12.57 0.81,3.78 0.12,8.13 -1.87,11.46 -0.88,1.47 -1.88,2.73 -3.18,3.85 -1.16,1.01 -3.1,2.31 -4.62,2.6l-0.94 0.19 -3.93 -10.18 1.11 -0.4c2.01,-0.71 2.76,-3.34 2.28,-5.25 -0.52,-2.04 -2.36,-3.48 -4.48,-3.44 -3.65,0.09 -5.47,3.84 -3.91,6.98 0.69,1.39 1.17,1.23 2.22,2.05l0.67 0.53 -3.89 9.64 -0.89 -0.14z"/>
   <path class="fil3" d="M15.19 33.3l3.23 -8c-0.66,-0.52 -1.68,-0.7 -2.54,-2.45 -1.88,-3.8 0.31,-8.52 4.92,-8.62 2.88,-0.06 5.02,1.98 5.61,4.3 0.63,2.54 -0.46,5.7 -3.01,6.61l3.16 8.19c1.41,-0.27 3.29,-1.64 4.09,-2.34 1.15,-0.99 2.06,-2.09 2.95,-3.58 1.67,-2.8 2.55,-6.83 1.74,-10.63 -1.34,-6.27 -6.95,-11.62 -14.35,-11.67 -7.55,-0.05 -13.1,5.2 -14.51,11.48 -1.06,4.7 0.31,9.23 2.99,12.62 1.15,1.45 3.84,3.8 5.72,4.09z"/>
  </g>
  <path class="fil4" d="M48.18 38.04l0 -6.12 1.25 0 0 5.08 3.09 0 0 1.04 -4.34 0zm7.42 0l0 -6.17 1.25 0 0 6.17 -1.25 0zm8.78 -2.28l1.2 0.37c-0.18,0.68 -0.49,1.19 -0.92,1.52 -0.43,0.33 -0.98,0.49 -1.64,0.49 -0.82,0 -1.49,-0.28 -2.02,-0.84 -0.53,-0.56 -0.79,-1.32 -0.79,-2.3 0,-1.02 0.26,-1.82 0.79,-2.39 0.53,-0.57 1.23,-0.85 2.09,-0.85 0.76,0 1.37,0.22 1.84,0.67 0.28,0.26 0.49,0.64 0.63,1.14l-1.23 0.29c-0.07,-0.32 -0.22,-0.57 -0.45,-0.76 -0.24,-0.18 -0.52,-0.27 -0.85,-0.27 -0.46,0 -0.83,0.16 -1.11,0.49 -0.29,0.33 -0.43,0.86 -0.43,1.59 0,0.78 0.14,1.34 0.42,1.67 0.28,0.33 0.65,0.49 1.1,0.49 0.33,0 0.61,-0.1 0.85,-0.31 0.24,-0.21 0.41,-0.54 0.52,-1zm4.66 2.28l0 -6.17 4.57 0 0 1.04 -3.32 0 0 1.37 3.09 0 0 1.04 -3.09 0 0 1.68 3.44 0 0 1.04 -4.69 0zm8.14 0l0 -6.17 1.21 0 2.54 4.13 0 -4.13 1.15 0 0 6.17 -1.24 0 -2.5 -4.06 0 4.06 -1.16 0zm8.29 -2l1.22 -0.12c0.07,0.4 0.21,0.7 0.44,0.89 0.22,0.19 0.52,0.29 0.9,0.29 0.4,0 0.7,-0.09 0.9,-0.26 0.2,-0.16 0.3,-0.36 0.3,-0.59 0,-0.15 -0.04,-0.27 -0.12,-0.37 -0.09,-0.1 -0.24,-0.19 -0.45,-0.27 -0.15,-0.05 -0.47,-0.14 -0.99,-0.27 -0.67,-0.16 -1.13,-0.37 -1.4,-0.61 -0.38,-0.34 -0.57,-0.76 -0.57,-1.25 0,-0.31 0.09,-0.61 0.27,-0.88 0.18,-0.27 0.43,-0.48 0.77,-0.63 0.33,-0.14 0.73,-0.21 1.21,-0.21 0.77,0 1.35,0.17 1.74,0.51 0.39,0.34 0.59,0.8 0.61,1.37l-1.25 0.05c-0.05,-0.32 -0.16,-0.55 -0.34,-0.69 -0.17,-0.14 -0.43,-0.21 -0.78,-0.21 -0.36,0 -0.64,0.08 -0.84,0.22 -0.13,0.1 -0.2,0.23 -0.2,0.39 0,0.15 0.06,0.27 0.19,0.37 0.15,0.14 0.53,0.28 1.14,0.42 0.6,0.14 1.05,0.29 1.34,0.44 0.29,0.16 0.52,0.37 0.68,0.63 0.16,0.27 0.24,0.59 0.24,0.98 0,0.36 -0.09,0.69 -0.29,1 -0.2,0.31 -0.47,0.53 -0.83,0.68 -0.36,0.15 -0.81,0.23 -1.35,0.23 -0.78,0 -1.37,-0.18 -1.79,-0.54 -0.42,-0.36 -0.67,-0.88 -0.75,-1.57zm8.47 2l0 -6.17 4.56 0 0 1.04 -3.31 0 0 1.37 3.08 0 0 1.04 -3.08 0 0 1.68 3.43 0 0 1.04 -4.68 0zm8.14 -6.17l2.27 0c0.51,0 0.9,0.04 1.17,0.12 0.36,0.1 0.67,0.29 0.93,0.57 0.25,0.27 0.45,0.6 0.58,0.99 0.14,0.4 0.21,0.89 0.21,1.46 0,0.51 -0.07,0.95 -0.19,1.31 -0.16,0.45 -0.38,0.82 -0.66,1.09 -0.22,0.22 -0.51,0.38 -0.88,0.5 -0.27,0.08 -0.64,0.13 -1.1,0.13l-2.33 0 0 -6.17zm1.24 1.04l0 4.09 0.93 0c0.35,0 0.6,-0.02 0.75,-0.06 0.2,-0.05 0.37,-0.14 0.5,-0.26 0.13,-0.12 0.24,-0.32 0.33,-0.6 0.08,-0.27 0.12,-0.65 0.12,-1.12 0,-0.48 -0.04,-0.85 -0.12,-1.1 -0.09,-0.26 -0.21,-0.46 -0.36,-0.6 -0.15,-0.14 -0.34,-0.24 -0.57,-0.29 -0.17,-0.04 -0.51,-0.06 -1.02,-0.06l-0.56 0z"/>
  <g id="_2032463946288">
   <g>
    <path id="c-border" class="fil5" d="M73.74 13.46c-0.14,-0.56 -0.34,-1.09 -0.62,-1.58l-1.58 1.58 2.2 0zm-3.2 -4.16c-0.93,-0.51 -1.98,-0.79 -3.11,-0.79 -3.58,0 -6.49,2.9 -6.49,6.49 0,1.12 0.29,2.18 0.79,3.1l2.26 -2.26c-0.06,-0.27 -0.1,-0.55 -0.1,-0.84 0,-1.96 1.59,-3.54 3.54,-3.54 0.29,0 0.58,0.03 0.84,0.1l2.27 -2.26zm-6.22 11.39c0.92,0.51 1.98,0.79 3.11,0.79 3.1,0 5.69,-2.17 6.33,-5.07l-3.08 0c-0.55,1.25 -1.8,2.12 -3.25,2.12 -0.29,0 -0.58,-0.03 -0.86,-0.1l-2.25 2.26z"/>
    <rect id="bar" class="fil5" transform="matrix(0.0266874 0.0266874 -0.0266874 0.0266874 73.6384 6.66701)" width="78.13" height="546.89"/>
    <path class="fil6" d="M78.84 15c0,6.3 -5.11,11.4 -11.41,11.4 -6.3,0 -11.4,-5.1 -11.4,-11.4 0,-6.3 5.1,-11.41 11.4,-11.41 6.3,0 11.41,5.11 11.41,11.41zm-2.21 0c0,-5.09 -4.12,-9.2 -9.2,-9.2 -5.08,0 -9.2,4.11 -9.2,9.2 0,5.08 4.12,9.19 9.2,9.19 5.08,0 9.2,-4.11 9.2,-9.19z"/>
   </g>
   <path class="fil5" d="M87.9 24.19l0 -1.38c-0.72,1.05 -1.7,1.58 -2.95,1.58 -0.55,0 -1.06,-0.1 -1.54,-0.31 -0.47,-0.22 -0.83,-0.48 -1.06,-0.8 -0.23,-0.32 -0.39,-0.71 -0.49,-1.17 -0.06,-0.31 -0.09,-0.8 -0.09,-1.48l0 -5.77 1.58 0 0 5.16c0,0.83 0.03,1.39 0.1,1.67 0.1,0.42 0.31,0.74 0.63,0.98 0.32,0.23 0.72,0.35 1.19,0.35 0.47,0 0.92,-0.12 1.33,-0.36 0.42,-0.24 0.71,-0.57 0.88,-0.99 0.17,-0.42 0.26,-1.03 0.26,-1.82l0 -4.99 1.58 0 0 9.33 -1.42 0zm3.91 0l0 -9.33 1.42 0 0 1.32c0.69,-1.02 1.68,-1.52 2.97,-1.52 0.56,0 1.08,0.1 1.55,0.3 0.47,0.2 0.82,0.47 1.06,0.8 0.23,0.32 0.4,0.71 0.49,1.16 0.06,0.3 0.09,0.81 0.09,1.54l0 5.73 -1.59 0 0 -5.67c0,-0.64 -0.06,-1.13 -0.18,-1.45 -0.12,-0.31 -0.34,-0.57 -0.65,-0.76 -0.31,-0.19 -0.68,-0.28 -1.1,-0.28 -0.68,0 -1.25,0.21 -1.74,0.64 -0.49,0.42 -0.73,1.24 -0.73,2.43l0 5.09 -1.59 0z"/>
  </g>
 </g>
</svg>
